<svg xmlns="http://www.w3.org/2000/svg" xmlns:xlink="http://www.w3.org/1999/xlink" width="140" zoomAndPan="magnify" viewBox="0 0 104.88 30.000001" height="40" preserveAspectRatio="xMidYMid meet" version="1.0"><defs><g/><clipPath id="e554cbb1bd"><path d="M 2.578125 9.117188 L 21 9.117188 L 21 27.261719 L 2.578125 27.261719 Z M 2.578125 9.117188 " clip-rule="nonzero"/></clipPath><clipPath id="157d28a825"><path d="M 11 9.117188 L 29.433594 9.117188 L 29.433594 27.261719 L 11 27.261719 Z M 11 9.117188 " clip-rule="nonzero"/></clipPath><clipPath id="ed2f77944e"><path d="M 2.578125 1.800781 L 21 1.800781 L 21 19.945312 L 2.578125 19.945312 Z M 2.578125 1.800781 " clip-rule="nonzero"/></clipPath><clipPath id="482fbf8d95"><path d="M 11 1.800781 L 29.433594 1.800781 L 29.433594 19.945312 L 11 19.945312 Z M 11 1.800781 " clip-rule="nonzero"/></clipPath><clipPath id="388045e983"><path d="M 0.148438 4 L 9 4 L 9 16 L 0.148438 16 Z M 0.148438 4 " clip-rule="nonzero"/></clipPath><clipPath id="a4f065dd79"><rect x="0" width="69" y="0" height="21"/></clipPath></defs><g clip-path="url(#e554cbb1bd)"><path fill="#e3b473" d="M 16.007812 21.054688 L 15.117188 21.941406 L 15.113281 21.941406 L 16.003906 22.832031 L 16.003906 22.828125 L 16.890625 21.941406 Z M 17.46875 14.980469 L 16.894531 14.402344 L 16.890625 14.402344 L 16.003906 13.515625 L 16 13.515625 L 15.507812 13.019531 L 11.621094 9.128906 L 2.578125 18.171875 L 11.621094 27.214844 L 15.824219 23.007812 L 14.9375 22.121094 L 11.621094 25.4375 L 4.351562 18.171875 L 11.621094 10.90625 L 15.117188 14.402344 L 16.003906 15.292969 L 18.882812 18.171875 L 16.183594 20.875 L 17.070312 21.761719 L 20.660156 18.171875 Z M 17.46875 14.980469 " fill-opacity="1" fill-rule="nonzero"/></g><g clip-path="url(#157d28a825)"><path fill="#e3b473" d="M 20.390625 9.128906 L 16.179688 13.335938 L 17.070312 14.226562 L 20.386719 10.90625 L 27.652344 18.171875 L 20.386719 25.4375 L 16.003906 21.054688 L 13.125 18.171875 L 15.824219 15.472656 L 14.933594 14.582031 L 11.347656 18.171875 L 14.601562 21.429688 L 15.113281 21.941406 L 15.117188 21.941406 L 16.003906 22.828125 L 16.003906 22.832031 L 16.5625 23.394531 L 20.390625 27.214844 L 29.433594 18.171875 Z M 16.007812 13.515625 L 16.003906 13.515625 L 15.113281 14.40625 L 16.003906 15.296875 L 16.003906 15.292969 L 16.890625 14.402344 Z M 16.007812 13.515625 " fill-opacity="1" fill-rule="nonzero"/></g><g clip-path="url(#ed2f77944e)"><path fill="#e3b473" d="M 16.007812 13.738281 L 15.117188 14.628906 L 15.113281 14.628906 L 16.003906 15.519531 L 16.003906 15.515625 L 16.890625 14.625 Z M 17.46875 7.664062 L 16.894531 7.089844 L 16.890625 7.089844 L 16.003906 6.203125 L 16 6.203125 L 15.507812 5.703125 L 11.621094 1.816406 L 2.578125 10.859375 L 11.621094 19.902344 L 15.824219 15.691406 L 14.9375 14.804688 L 11.621094 18.121094 L 4.351562 10.859375 L 11.621094 3.59375 L 15.117188 7.089844 L 16.003906 7.980469 L 18.882812 10.859375 L 16.183594 13.5625 L 17.070312 14.449219 L 20.660156 10.859375 Z M 17.46875 7.664062 " fill-opacity="1" fill-rule="nonzero"/></g><g clip-path="url(#482fbf8d95)"><path fill="#e3b473" d="M 20.390625 1.816406 L 16.179688 6.023438 L 17.070312 6.914062 L 20.386719 3.59375 L 27.652344 10.859375 L 20.386719 18.125 L 16.890625 14.628906 L 16.003906 13.738281 L 13.125 10.859375 L 15.824219 8.160156 L 14.933594 7.269531 L 11.347656 10.859375 L 14.601562 14.117188 L 15.113281 14.628906 L 15.117188 14.628906 L 16.003906 15.515625 L 16.003906 15.519531 L 16.5625 16.078125 L 20.390625 19.902344 L 29.433594 10.859375 Z M 16.007812 6.203125 L 16.003906 6.203125 L 15.113281 7.09375 L 16.003906 7.980469 L 16.890625 7.089844 Z M 16.007812 6.203125 " fill-opacity="1" fill-rule="nonzero"/></g><g transform="matrix(1, 0, 0, 1, 34, 4)"><g clip-path="url(#a4f065dd79)"><g clip-path="url(#388045e983)"><g fill="#ffffff" fill-opacity="1"><g transform="translate(0.326059, 15.247486)"><g><path d="M 3.234375 0 L 3.234375 -9.625 L 0.140625 -9.625 L 0.140625 -10.84375 L 7.75 -10.84375 L 7.75 -9.625 L 4.671875 -9.625 L 4.671875 0 Z M 3.234375 0 "/></g></g></g></g><g fill="#ffffff" fill-opacity="1"><g transform="translate(8.217501, 15.247486)"><g><path d="M 1.296875 0 L 1.296875 -7.84375 L 2.5625 -7.84375 L 2.609375 -6.515625 C 2.828125 -6.921875 3.128906 -7.257812 3.515625 -7.53125 C 3.910156 -7.800781 4.425781 -7.9375 5.0625 -7.9375 L 5.21875 -7.9375 L 5.21875 -6.71875 L 5.03125 -6.71875 C 4.644531 -6.71875 4.300781 -6.664062 4 -6.5625 C 3.707031 -6.457031 3.453125 -6.3125 3.234375 -6.125 C 3.015625 -5.945312 2.816406 -5.742188 2.640625 -5.515625 L 2.640625 0 Z M 1.296875 0 "/></g></g></g><g fill="#ffffff" fill-opacity="1"><g transform="translate(13.733458, 15.247486)"><g><path d="M 3.78125 0.125 C 2.875 0.125 2.21875 -0.125 1.8125 -0.625 C 1.414062 -1.132812 1.21875 -1.832031 1.21875 -2.71875 L 1.21875 -7.84375 L 2.5625 -7.84375 L 2.5625 -2.90625 C 2.5625 -2.550781 2.601562 -2.234375 2.6875 -1.953125 C 2.769531 -1.671875 2.921875 -1.453125 3.140625 -1.296875 C 3.367188 -1.148438 3.695312 -1.078125 4.125 -1.078125 C 4.71875 -1.078125 5.210938 -1.195312 5.609375 -1.4375 C 6.003906 -1.6875 6.320312 -1.96875 6.5625 -2.28125 L 6.5625 -7.84375 L 7.921875 -7.84375 L 7.921875 0 L 6.625 0 L 6.578125 -1.203125 C 6.328125 -0.890625 5.972656 -0.585938 5.515625 -0.296875 C 5.054688 -0.015625 4.476562 0.125 3.78125 0.125 Z M 3.78125 0.125 "/></g></g></g><g fill="#ffffff" fill-opacity="1"><g transform="translate(22.945509, 15.247486)"><g><path d="M 4.078125 0.140625 C 3.640625 0.140625 3.222656 0.09375 2.828125 0 C 2.429688 -0.09375 2.082031 -0.242188 1.78125 -0.453125 C 1.476562 -0.671875 1.242188 -0.945312 1.078125 -1.28125 C 0.910156 -1.625 0.828125 -2.035156 0.828125 -2.515625 L 2.125 -2.515625 C 2.125 -1.910156 2.3125 -1.484375 2.6875 -1.234375 C 3.0625 -0.984375 3.535156 -0.859375 4.109375 -0.859375 C 4.617188 -0.859375 5.035156 -0.953125 5.359375 -1.140625 C 5.691406 -1.335938 5.859375 -1.664062 5.859375 -2.125 C 5.859375 -2.507812 5.707031 -2.796875 5.40625 -2.984375 C 5.113281 -3.171875 4.59375 -3.351562 3.84375 -3.53125 C 3.226562 -3.675781 2.710938 -3.84375 2.296875 -4.03125 C 1.878906 -4.21875 1.566406 -4.457031 1.359375 -4.75 C 1.148438 -5.050781 1.046875 -5.421875 1.046875 -5.859375 C 1.046875 -6.210938 1.117188 -6.519531 1.265625 -6.78125 C 1.410156 -7.050781 1.613281 -7.273438 1.875 -7.453125 C 2.144531 -7.628906 2.457031 -7.757812 2.8125 -7.84375 C 3.175781 -7.9375 3.566406 -7.984375 3.984375 -7.984375 C 4.398438 -7.984375 4.789062 -7.929688 5.15625 -7.828125 C 5.519531 -7.734375 5.835938 -7.582031 6.109375 -7.375 C 6.390625 -7.175781 6.609375 -6.914062 6.765625 -6.59375 C 6.929688 -6.269531 7.015625 -5.882812 7.015625 -5.4375 L 5.703125 -5.4375 C 5.703125 -6 5.535156 -6.394531 5.203125 -6.625 C 4.867188 -6.851562 4.460938 -6.96875 3.984375 -6.96875 C 3.503906 -6.96875 3.113281 -6.878906 2.8125 -6.703125 C 2.507812 -6.535156 2.359375 -6.269531 2.359375 -5.90625 C 2.359375 -5.695312 2.425781 -5.519531 2.5625 -5.375 C 2.695312 -5.226562 2.921875 -5.097656 3.234375 -4.984375 C 3.554688 -4.867188 3.984375 -4.742188 4.515625 -4.609375 C 5.097656 -4.472656 5.585938 -4.304688 5.984375 -4.109375 C 6.390625 -3.921875 6.691406 -3.675781 6.890625 -3.375 C 7.085938 -3.070312 7.1875 -2.679688 7.1875 -2.203125 C 7.1875 -1.796875 7.109375 -1.441406 6.953125 -1.140625 C 6.796875 -0.847656 6.578125 -0.601562 6.296875 -0.40625 C 6.015625 -0.21875 5.679688 -0.0820312 5.296875 0 C 4.921875 0.09375 4.515625 0.140625 4.078125 0.140625 Z M 4.078125 0.140625 "/></g></g></g><g fill="#ffffff" fill-opacity="1"><g transform="translate(30.957738, 15.247486)"><g><path d="M 3.921875 0 C 3.285156 0 2.796875 -0.0976562 2.453125 -0.296875 C 2.117188 -0.503906 1.890625 -0.796875 1.765625 -1.171875 C 1.640625 -1.546875 1.578125 -2 1.578125 -2.53125 L 1.578125 -6.765625 L 0.265625 -6.765625 L 0.265625 -7.84375 L 1.578125 -7.84375 L 1.578125 -9.640625 L 2.90625 -9.640625 L 2.90625 -7.84375 L 4.84375 -7.84375 L 4.84375 -6.765625 L 2.90625 -6.765625 L 2.90625 -2.609375 C 2.90625 -2.117188 2.96875 -1.742188 3.09375 -1.484375 C 3.21875 -1.222656 3.519531 -1.09375 4 -1.09375 L 4.859375 -1.09375 L 4.859375 0 Z M 3.921875 0 "/></g></g></g><g fill="#ffffff" fill-opacity="1"><g transform="translate(36.288488, 15.247486)"><g><path d="M 3.1875 0 L 0.015625 -10.84375 L 1.53125 -10.84375 L 3.984375 -1.796875 L 6.578125 -10.84375 L 8.1875 -10.84375 L 10.78125 -1.796875 L 13.25 -10.84375 L 14.703125 -10.84375 L 11.53125 0 L 10.015625 0 L 7.359375 -9.171875 L 4.734375 0 Z M 3.1875 0 "/></g></g></g><g fill="#ffffff" fill-opacity="1"><g transform="translate(51.00039, 15.247486)"><g><path d="M 4.5625 0.140625 C 3.707031 0.140625 3.003906 -0.0351562 2.453125 -0.390625 C 1.910156 -0.742188 1.507812 -1.226562 1.25 -1.84375 C 0.988281 -2.457031 0.859375 -3.148438 0.859375 -3.921875 C 0.859375 -4.722656 0.984375 -5.425781 1.234375 -6.03125 C 1.492188 -6.644531 1.882812 -7.125 2.40625 -7.46875 C 2.925781 -7.8125 3.59375 -7.984375 4.40625 -7.984375 C 5.46875 -7.984375 6.300781 -7.660156 6.90625 -7.015625 C 7.519531 -6.367188 7.828125 -5.441406 7.828125 -4.234375 C 7.828125 -4.148438 7.820312 -4.050781 7.8125 -3.9375 C 7.8125 -3.832031 7.804688 -3.757812 7.796875 -3.71875 L 2.203125 -3.71875 C 2.203125 -3.207031 2.28125 -2.738281 2.4375 -2.3125 C 2.601562 -1.882812 2.859375 -1.539062 3.203125 -1.28125 C 3.546875 -1.019531 4 -0.890625 4.5625 -0.890625 C 5.164062 -0.890625 5.632812 -1.03125 5.96875 -1.3125 C 6.3125 -1.59375 6.488281 -2 6.5 -2.53125 L 7.828125 -2.53125 C 7.816406 -1.976562 7.675781 -1.5 7.40625 -1.09375 C 7.132812 -0.695312 6.753906 -0.390625 6.265625 -0.171875 C 5.785156 0.0351562 5.21875 0.140625 4.5625 0.140625 Z M 2.203125 -4.703125 L 6.5 -4.703125 C 6.476562 -5.429688 6.285156 -5.988281 5.921875 -6.375 C 5.554688 -6.757812 5.050781 -6.953125 4.40625 -6.953125 C 3.75 -6.953125 3.234375 -6.757812 2.859375 -6.375 C 2.484375 -5.988281 2.265625 -5.429688 2.203125 -4.703125 Z M 2.203125 -4.703125 "/></g></g></g><g fill="#ffffff" fill-opacity="1"><g transform="translate(59.689029, 15.247486)"><g><path d="M 3.546875 0 C 2.910156 0 2.421875 -0.0976562 2.078125 -0.296875 C 1.742188 -0.503906 1.515625 -0.796875 1.390625 -1.171875 C 1.265625 -1.546875 1.203125 -2 1.203125 -2.53125 L 1.203125 -10.84375 L 2.546875 -10.84375 L 2.546875 -2.609375 C 2.546875 -2.117188 2.609375 -1.742188 2.734375 -1.484375 C 2.859375 -1.222656 3.160156 -1.09375 3.640625 -1.09375 L 4 -1.09375 L 4 0 Z M 3.546875 0 "/></g></g></g><g fill="#ffffff" fill-opacity="1"><g transform="translate(63.981007, 15.247486)"><g><path d="M 3.546875 0 C 2.910156 0 2.421875 -0.0976562 2.078125 -0.296875 C 1.742188 -0.503906 1.515625 -0.796875 1.390625 -1.171875 C 1.265625 -1.546875 1.203125 -2 1.203125 -2.53125 L 1.203125 -10.84375 L 2.546875 -10.84375 L 2.546875 -2.609375 C 2.546875 -2.117188 2.609375 -1.742188 2.734375 -1.484375 C 2.859375 -1.222656 3.160156 -1.09375 3.640625 -1.09375 L 4 -1.09375 L 4 0 Z M 3.546875 0 "/></g></g></g></g></g></svg>