<svg xmlns="http://www.w3.org/2000/svg" xmlns:xlink="http://www.w3.org/1999/xlink" width="140" zoomAndPan="magnify" viewBox="0 0 104.88 30.000001" height="40" preserveAspectRatio="xMidYMid meet" version="1.0"><defs><g/><clipPath id="b6a60b4b26"><path d="M 30 0 L 103.128906 0 L 103.128906 29 L 30 29 Z M 30 0 " clip-rule="nonzero"/></clipPath><clipPath id="d5c56a5400"><rect x="0" width="74" y="0" height="29"/></clipPath></defs><path stroke-linecap="round" transform="matrix(0, 0.725806, -0.725806, 0, 5.259447, 4.139367)" fill="none" stroke-linejoin="miter" d="M 1.497914 1.498432 L 27.099824 1.498432 " stroke="#ffffff" stroke-width="3" stroke-opacity="1" stroke-miterlimit="4"/><path stroke-linecap="round" transform="matrix(0, 0.725806, -0.725806, 0, 10.920737, 4.139367)" fill="none" stroke-linejoin="miter" d="M 1.497914 1.499995 L 27.099824 1.499995 " stroke="#ffffff" stroke-width="3" stroke-opacity="1" stroke-miterlimit="4"/><path stroke-linecap="round" transform="matrix(0, 0.725806, -0.725806, 0, 16.727188, 4.139367)" fill="none" stroke-linejoin="miter" d="M 1.497914 1.502424 L 27.099824 1.502424 " stroke="#ffffff" stroke-width="3" stroke-opacity="1" stroke-miterlimit="4"/><path stroke-linecap="round" transform="matrix(0, 0.725806, -0.725806, 0, 22.533639, 4.139367)" fill="none" stroke-linejoin="miter" d="M 1.497914 1.499473 L 27.099824 1.499473 " stroke="#ffffff" stroke-width="3" stroke-opacity="1" stroke-miterlimit="4"/><path stroke-linecap="round" transform="matrix(0, 0.725806, -0.725806, 0, 28.340091, 4.139367)" fill="none" stroke-linejoin="miter" d="M 1.497914 1.501903 L 27.099824 1.501903 " stroke="#ffffff" stroke-width="3" stroke-opacity="1" stroke-miterlimit="4"/><g clip-path="url(#b6a60b4b26)"><g transform="matrix(1, 0, 0, 1, 30, 0.000000000000005718)"><g clip-path="url(#d5c56a5400)"><g fill="#ffffff" fill-opacity="1"><g transform="translate(0.977611, 22.874937)"><g><path d="M 3.34375 0 L 2.09375 0 C 1.800781 0 1.65625 -0.148438 1.65625 -0.453125 L 1.65625 -16.28125 C 1.65625 -16.570312 1.800781 -16.71875 2.09375 -16.71875 L 10.1875 -16.71875 C 10.488281 -16.71875 10.640625 -16.570312 10.640625 -16.28125 L 10.640625 -15.171875 C 10.640625 -14.878906 10.488281 -14.734375 10.1875 -14.734375 L 3.78125 -14.734375 L 3.78125 -7.296875 L 9.46875 -7.296875 C 9.769531 -7.296875 9.921875 -7.144531 9.921875 -6.84375 L 9.921875 -5.796875 C 9.921875 -5.492188 9.769531 -5.34375 9.46875 -5.34375 L 3.78125 -5.34375 L 3.78125 -0.453125 C 3.78125 -0.148438 3.632812 0 3.34375 0 Z M 3.34375 0 "/></g></g><g transform="translate(12.209756, 22.874937)"><g><path d="M 2.453125 -12.234375 C 2.046875 -12.234375 1.710938 -12.363281 1.453125 -12.625 C 1.191406 -12.882812 1.0625 -13.21875 1.0625 -13.625 C 1.0625 -14.007812 1.191406 -14.335938 1.453125 -14.609375 C 1.710938 -14.878906 2.046875 -15.015625 2.453125 -15.015625 C 2.835938 -15.015625 3.160156 -14.878906 3.421875 -14.609375 C 3.691406 -14.335938 3.828125 -14.007812 3.828125 -13.625 C 3.828125 -13.21875 3.691406 -12.882812 3.421875 -12.625 C 3.160156 -12.363281 2.835938 -12.234375 2.453125 -12.234375 Z M 3 0 L 1.90625 0 C 1.601562 0 1.453125 -0.148438 1.453125 -0.453125 L 1.453125 -10.390625 C 1.453125 -10.679688 1.601562 -10.828125 1.90625 -10.828125 L 3 -10.828125 C 3.289062 -10.828125 3.4375 -10.679688 3.4375 -10.390625 L 3.4375 -0.453125 C 3.4375 -0.148438 3.289062 0 3 0 Z M 3 0 "/></g></g><g transform="translate(17.118377, 22.874937)"><g><path d="M 3 0 L 1.90625 0 C 1.601562 0 1.453125 -0.148438 1.453125 -0.453125 L 1.453125 -10.390625 C 1.453125 -10.679688 1.601562 -10.828125 1.90625 -10.828125 L 2.515625 -10.828125 C 2.785156 -10.828125 2.945312 -10.695312 3 -10.4375 L 3.234375 -9.203125 C 3.566406 -9.859375 3.984375 -10.332031 4.484375 -10.625 C 4.992188 -10.914062 5.535156 -11.0625 6.109375 -11.0625 C 6.253906 -11.0625 6.40625 -11.046875 6.5625 -11.015625 C 6.71875 -10.992188 6.882812 -10.96875 7.0625 -10.9375 C 7.1875 -10.90625 7.273438 -10.835938 7.328125 -10.734375 C 7.378906 -10.640625 7.382812 -10.523438 7.34375 -10.390625 L 7.09375 -9.40625 C 7.0625 -9.269531 7 -9.175781 6.90625 -9.125 C 6.8125 -9.082031 6.691406 -9.078125 6.546875 -9.109375 C 6.429688 -9.128906 6.316406 -9.144531 6.203125 -9.15625 C 6.097656 -9.164062 6 -9.171875 5.90625 -9.171875 C 5.15625 -9.171875 4.554688 -8.882812 4.109375 -8.3125 C 3.660156 -7.75 3.4375 -6.910156 3.4375 -5.796875 L 3.4375 -0.453125 C 3.4375 -0.148438 3.289062 0 3 0 Z M 3 0 "/></g></g><g transform="translate(24.954758, 22.874937)"><g><path d="M 6.375 -11.0625 C 7.125 -11.0625 7.820312 -10.925781 8.46875 -10.65625 C 9.113281 -10.382812 9.675781 -10.003906 10.15625 -9.515625 C 10.644531 -9.023438 11.023438 -8.445312 11.296875 -7.78125 C 11.566406 -7.113281 11.703125 -6.378906 11.703125 -5.578125 C 11.703125 -5.398438 11.65625 -5.285156 11.5625 -5.234375 C 11.476562 -5.179688 11.375 -5.15625 11.25 -5.15625 L 2.96875 -5.15625 C 3 -4.4375 3.171875 -3.8125 3.484375 -3.28125 C 3.804688 -2.757812 4.226562 -2.351562 4.75 -2.0625 C 5.269531 -1.78125 5.835938 -1.640625 6.453125 -1.640625 C 7.035156 -1.640625 7.601562 -1.78125 8.15625 -2.0625 C 8.707031 -2.34375 9.171875 -2.75 9.546875 -3.28125 C 9.628906 -3.394531 9.710938 -3.460938 9.796875 -3.484375 C 9.878906 -3.503906 9.984375 -3.484375 10.109375 -3.421875 L 10.875 -2.84375 C 11.125 -2.707031 11.164062 -2.515625 11 -2.265625 C 10.65625 -1.742188 10.238281 -1.296875 9.75 -0.921875 C 9.269531 -0.546875 8.75 -0.257812 8.1875 -0.0625 C 7.625 0.132812 7.03125 0.234375 6.40625 0.234375 C 5.664062 0.234375 4.96875 0.0976562 4.3125 -0.171875 C 3.65625 -0.441406 3.078125 -0.820312 2.578125 -1.3125 C 2.078125 -1.8125 1.6875 -2.40625 1.40625 -3.09375 C 1.125 -3.789062 0.984375 -4.5625 0.984375 -5.40625 C 0.984375 -6.25 1.117188 -7.015625 1.390625 -7.703125 C 1.671875 -8.398438 2.054688 -9 2.546875 -9.5 C 3.035156 -10 3.609375 -10.382812 4.265625 -10.65625 C 4.921875 -10.925781 5.625 -11.0625 6.375 -11.0625 Z M 6.390625 -9.25 C 5.921875 -9.25 5.460938 -9.148438 5.015625 -8.953125 C 4.578125 -8.765625 4.191406 -8.488281 3.859375 -8.125 C 3.535156 -7.757812 3.296875 -7.3125 3.140625 -6.78125 L 9.53125 -6.78125 C 9.394531 -7.3125 9.171875 -7.757812 8.859375 -8.125 C 8.546875 -8.488281 8.175781 -8.765625 7.75 -8.953125 C 7.320312 -9.148438 6.867188 -9.25 6.390625 -9.25 Z M 6.390625 -9.25 "/></g></g><g transform="translate(37.580037, 22.874937)"><g><path d="M 6.4375 -11.0625 C 7.082031 -11.0625 7.648438 -10.953125 8.140625 -10.734375 C 8.628906 -10.515625 9.039062 -10.210938 9.375 -9.828125 C 9.707031 -9.441406 9.957031 -8.988281 10.125 -8.46875 C 10.300781 -7.957031 10.390625 -7.398438 10.390625 -6.796875 L 10.390625 -0.453125 C 10.390625 -0.148438 10.238281 0 9.9375 0 L 8.84375 0 C 8.550781 0 8.40625 -0.148438 8.40625 -0.453125 L 8.40625 -6.671875 C 8.40625 -7.191406 8.304688 -7.632812 8.109375 -8 C 7.910156 -8.375 7.632812 -8.664062 7.28125 -8.875 C 6.9375 -9.082031 6.523438 -9.1875 6.046875 -9.1875 C 5.597656 -9.1875 5.171875 -9.085938 4.765625 -8.890625 C 4.367188 -8.691406 4.046875 -8.394531 3.796875 -8 C 3.554688 -7.613281 3.4375 -7.128906 3.4375 -6.546875 L 3.4375 -0.453125 C 3.4375 -0.148438 3.289062 0 3 0 L 1.90625 0 C 1.601562 0 1.453125 -0.148438 1.453125 -0.453125 L 1.453125 -10.390625 C 1.453125 -10.679688 1.601562 -10.828125 1.90625 -10.828125 L 2.515625 -10.828125 C 2.796875 -10.828125 2.957031 -10.695312 3 -10.4375 L 3.171875 -9.5625 C 3.628906 -10.070312 4.144531 -10.445312 4.71875 -10.6875 C 5.289062 -10.9375 5.863281 -11.0625 6.4375 -11.0625 Z M 6.4375 -11.0625 "/></g></g><g transform="translate(49.31284, 22.874937)"><g><path d="M 10.15625 0 L 1.0625 0 C 0.875 0 0.75 -0.0507812 0.6875 -0.15625 C 0.625 -0.257812 0.648438 -0.382812 0.765625 -0.53125 L 7.09375 -9.0625 L 1.5625 -9.0625 C 1.257812 -9.0625 1.109375 -9.207031 1.109375 -9.5 L 1.109375 -10.390625 C 1.109375 -10.679688 1.257812 -10.828125 1.5625 -10.828125 L 9.921875 -10.828125 C 10.097656 -10.828125 10.21875 -10.773438 10.28125 -10.671875 C 10.34375 -10.578125 10.320312 -10.445312 10.21875 -10.28125 L 4 -1.765625 L 10.15625 -1.765625 C 10.445312 -1.765625 10.59375 -1.617188 10.59375 -1.328125 L 10.59375 -0.453125 C 10.59375 -0.148438 10.445312 0 10.15625 0 Z M 10.15625 0 "/></g></g><g transform="translate(60.610288, 22.874937)"><g><path d="M 6.375 -11.0625 C 7.125 -11.0625 7.820312 -10.925781 8.46875 -10.65625 C 9.113281 -10.382812 9.675781 -10.003906 10.15625 -9.515625 C 10.644531 -9.023438 11.023438 -8.445312 11.296875 -7.78125 C 11.566406 -7.113281 11.703125 -6.378906 11.703125 -5.578125 C 11.703125 -5.398438 11.65625 -5.285156 11.5625 -5.234375 C 11.476562 -5.179688 11.375 -5.15625 11.25 -5.15625 L 2.96875 -5.15625 C 3 -4.4375 3.171875 -3.8125 3.484375 -3.28125 C 3.804688 -2.757812 4.226562 -2.351562 4.75 -2.0625 C 5.269531 -1.78125 5.835938 -1.640625 6.453125 -1.640625 C 7.035156 -1.640625 7.601562 -1.78125 8.15625 -2.0625 C 8.707031 -2.34375 9.171875 -2.75 9.546875 -3.28125 C 9.628906 -3.394531 9.710938 -3.460938 9.796875 -3.484375 C 9.878906 -3.503906 9.984375 -3.484375 10.109375 -3.421875 L 10.875 -2.84375 C 11.125 -2.707031 11.164062 -2.515625 11 -2.265625 C 10.65625 -1.742188 10.238281 -1.296875 9.75 -0.921875 C 9.269531 -0.546875 8.75 -0.257812 8.1875 -0.0625 C 7.625 0.132812 7.03125 0.234375 6.40625 0.234375 C 5.664062 0.234375 4.96875 0.0976562 4.3125 -0.171875 C 3.65625 -0.441406 3.078125 -0.820312 2.578125 -1.3125 C 2.078125 -1.8125 1.6875 -2.40625 1.40625 -3.09375 C 1.125 -3.789062 0.984375 -4.5625 0.984375 -5.40625 C 0.984375 -6.25 1.117188 -7.015625 1.390625 -7.703125 C 1.671875 -8.398438 2.054688 -9 2.546875 -9.5 C 3.035156 -10 3.609375 -10.382812 4.265625 -10.65625 C 4.921875 -10.925781 5.625 -11.0625 6.375 -11.0625 Z M 6.390625 -9.25 C 5.921875 -9.25 5.460938 -9.148438 5.015625 -8.953125 C 4.578125 -8.765625 4.191406 -8.488281 3.859375 -8.125 C 3.535156 -7.757812 3.296875 -7.3125 3.140625 -6.78125 L 9.53125 -6.78125 C 9.394531 -7.3125 9.171875 -7.757812 8.859375 -8.125 C 8.546875 -8.488281 8.175781 -8.765625 7.75 -8.953125 C 7.320312 -9.148438 6.867188 -9.25 6.390625 -9.25 Z M 6.390625 -9.25 "/></g></g></g></g></g></g></svg>