<svg xmlns="http://www.w3.org/2000/svg" xmlns:xlink="http://www.w3.org/1999/xlink" width="140" zoomAndPan="magnify" viewBox="0 0 104.88 30.000001" height="40" preserveAspectRatio="xMidYMid meet" version="1.0"><defs><g/><clipPath id="f0cbf2e8da"><path d="M 1.632812 0 L 21.628906 0 L 21.628906 29.03125 L 1.632812 29.03125 Z M 1.632812 0 " clip-rule="nonzero"/></clipPath><clipPath id="11d66f81f7"><path d="M 1.632812 -5.480469 C -9.410156 -5.480469 -18.363281 3.472656 -18.363281 14.515625 C -18.363281 25.558594 -9.410156 34.511719 1.632812 34.511719 C 12.675781 34.511719 21.628906 25.558594 21.628906 14.515625 C 21.628906 3.472656 12.675781 -5.480469 1.632812 -5.480469 Z M 1.632812 -5.480469 " clip-rule="nonzero"/></clipPath><clipPath id="63cef33393"><path d="M 0.632812 0 L 20.628906 0 L 20.628906 29.03125 L 0.632812 29.03125 Z M 0.632812 0 " clip-rule="nonzero"/></clipPath><clipPath id="fd656b3486"><path d="M 0.632812 -5.480469 C -10.410156 -5.480469 -19.363281 3.472656 -19.363281 14.515625 C -19.363281 25.558594 -10.410156 34.511719 0.632812 34.511719 C 11.675781 34.511719 20.628906 25.558594 20.628906 14.515625 C 20.628906 3.472656 11.675781 -5.480469 0.632812 -5.480469 Z M 0.632812 -5.480469 " clip-rule="nonzero"/></clipPath><clipPath id="b0bd714563"><rect x="0" width="21" y="0" height="30"/></clipPath><clipPath id="c65db19023"><path d="M 1.632812 0 L 35.964844 0 L 35.964844 29.03125 L 1.632812 29.03125 Z M 1.632812 0 " clip-rule="nonzero"/></clipPath><clipPath id="9727c0e026"><path d="M 17.347656 -4.101562 L 35.964844 14.515625 L 17.347656 33.132812 L -1.269531 14.515625 Z M 17.347656 -4.101562 " clip-rule="nonzero"/></clipPath><clipPath id="dd99845303"><path d="M 0.632812 0 L 34.964844 0 L 34.964844 29.03125 L 0.632812 29.03125 Z M 0.632812 0 " clip-rule="nonzero"/></clipPath><clipPath id="e2c90128fa"><path d="M 16.347656 -4.101562 L 34.964844 14.515625 L 16.347656 33.132812 L -2.269531 14.515625 Z M 16.347656 -4.101562 " clip-rule="nonzero"/></clipPath><clipPath id="8450472788"><rect x="0" width="35" y="0" height="30"/></clipPath><clipPath id="537b55515e"><path d="M 5.808594 4.609375 L 25.621094 4.609375 L 25.621094 24.421875 L 5.808594 24.421875 Z M 5.808594 4.609375 " clip-rule="nonzero"/></clipPath><clipPath id="c907c8303c"><path d="M 15.714844 4.609375 L 25.621094 14.515625 L 15.714844 24.421875 L 5.808594 14.515625 Z M 15.714844 4.609375 " clip-rule="nonzero"/></clipPath><clipPath id="f9cd78e75c"><path d="M 0.808594 0.609375 L 20.621094 0.609375 L 20.621094 20.421875 L 0.808594 20.421875 Z M 0.808594 0.609375 " clip-rule="nonzero"/></clipPath><clipPath id="2b11e23035"><path d="M 10.714844 0.609375 L 20.621094 10.515625 L 10.714844 20.421875 L 0.808594 10.515625 Z M 10.714844 0.609375 " clip-rule="nonzero"/></clipPath><clipPath id="ffd4d38e14"><rect x="0" width="21" y="0" height="21"/></clipPath><clipPath id="4a14db789b"><path d="M 39 3 L 103.128906 3 L 103.128906 28 L 39 28 Z M 39 3 " clip-rule="nonzero"/></clipPath><clipPath id="065531fa76"><rect x="0" width="65" y="0" height="25"/></clipPath></defs><g clip-path="url(#f0cbf2e8da)"><g clip-path="url(#11d66f81f7)"><g transform="matrix(1, 0, 0, 1, 1, 0.000000000000005692)"><g clip-path="url(#b0bd714563)"><g clip-path="url(#63cef33393)"><g clip-path="url(#fd656b3486)"><path fill="#ffffff" d="M -19.363281 -5.480469 L 20.628906 -5.480469 L 20.628906 34.511719 L -19.363281 34.511719 Z M -19.363281 -5.480469 " fill-opacity="1" fill-rule="nonzero"/></g></g></g></g></g></g><g clip-path="url(#c65db19023)"><g clip-path="url(#9727c0e026)"><g transform="matrix(1, 0, 0, 1, 1, 0.000000000000005692)"><g clip-path="url(#8450472788)"><g clip-path="url(#dd99845303)"><g clip-path="url(#e2c90128fa)"><path fill="#ffffff" d="M -2.269531 -4.101562 L 34.964844 -4.101562 L 34.964844 33.132812 L -2.269531 33.132812 Z M -2.269531 -4.101562 " fill-opacity="1" fill-rule="nonzero"/></g></g></g></g></g></g><g clip-path="url(#537b55515e)"><g clip-path="url(#c907c8303c)"><g transform="matrix(1, 0, 0, 1, 5, 4)"><g clip-path="url(#ffd4d38e14)"><g clip-path="url(#f9cd78e75c)"><g clip-path="url(#2b11e23035)"><path fill="#182028" d="M 0.808594 0.609375 L 20.621094 0.609375 L 20.621094 20.421875 L 0.808594 20.421875 Z M 0.808594 0.609375 " fill-opacity="1" fill-rule="nonzero"/></g></g></g></g></g></g><g clip-path="url(#4a14db789b)"><g transform="matrix(1, 0, 0, 1, 39, 3)"><g clip-path="url(#065531fa76)"><g fill="#ffffff" fill-opacity="1"><g transform="translate(0.693022, 18.446851)"><g><path d="M 10.984375 -0.359375 C 10.984375 -0.179688 10.910156 -0.078125 10.765625 -0.046875 C 10.484375 -0.00390625 9.953125 0.0351562 9.171875 0.078125 C 8.398438 0.128906 7.488281 0.15625 6.4375 0.15625 C 5.851562 0.15625 5.28125 0.109375 4.71875 0.015625 C 4.15625 -0.0664062 3.648438 -0.25 3.203125 -0.53125 C 2.753906 -0.8125 2.394531 -1.222656 2.125 -1.765625 C 1.863281 -2.316406 1.734375 -3.050781 1.734375 -3.96875 L 1.734375 -16 C 1.734375 -16.125 1.773438 -16.226562 1.859375 -16.3125 C 1.953125 -16.40625 2.054688 -16.453125 2.171875 -16.453125 L 3.296875 -16.453125 C 3.410156 -16.453125 3.507812 -16.40625 3.59375 -16.3125 C 3.6875 -16.226562 3.734375 -16.125 3.734375 -16 L 3.734375 -3.96875 C 3.734375 -3.40625 3.796875 -2.953125 3.921875 -2.609375 C 4.054688 -2.273438 4.316406 -2.03125 4.703125 -1.875 C 5.097656 -1.726562 5.6875 -1.65625 6.46875 -1.65625 L 10.734375 -1.65625 C 10.898438 -1.65625 10.984375 -1.566406 10.984375 -1.390625 Z M 10.984375 -0.359375 "/></g></g></g><g fill="#ffffff" fill-opacity="1"><g transform="translate(12.073845, 18.446851)"><g><path d="M 3.734375 -14.5625 C 3.734375 -14.445312 3.6875 -14.34375 3.59375 -14.25 C 3.507812 -14.164062 3.410156 -14.125 3.296875 -14.125 L 2.171875 -14.125 C 2.054688 -14.125 1.953125 -14.164062 1.859375 -14.25 C 1.773438 -14.34375 1.734375 -14.445312 1.734375 -14.5625 L 1.734375 -16.34375 C 1.734375 -16.457031 1.773438 -16.554688 1.859375 -16.640625 C 1.953125 -16.734375 2.054688 -16.78125 2.171875 -16.78125 L 3.296875 -16.78125 C 3.410156 -16.78125 3.507812 -16.734375 3.59375 -16.640625 C 3.6875 -16.554688 3.734375 -16.457031 3.734375 -16.34375 Z M 3.703125 -0.4375 C 3.703125 -0.320312 3.65625 -0.21875 3.5625 -0.125 C 3.476562 -0.0390625 3.375 0 3.25 0 L 2.1875 0 C 2.070312 0 1.96875 -0.0390625 1.875 -0.125 C 1.789062 -0.21875 1.75 -0.320312 1.75 -0.4375 L 1.75 -11.734375 C 1.75 -11.847656 1.789062 -11.945312 1.875 -12.03125 C 1.96875 -12.125 2.070312 -12.171875 2.1875 -12.171875 L 3.25 -12.171875 C 3.375 -12.171875 3.476562 -12.125 3.5625 -12.03125 C 3.65625 -11.945312 3.703125 -11.847656 3.703125 -11.734375 Z M 3.703125 -0.4375 "/></g></g></g><g fill="#ffffff" fill-opacity="1"><g transform="translate(17.542845, 18.446851)"><g><path d="M 9.203125 -3.0625 C 9.203125 -1.9375 8.820312 -1.117188 8.0625 -0.609375 C 7.3125 -0.0976562 6.3125 0.15625 5.0625 0.15625 C 4.800781 0.15625 4.460938 0.144531 4.046875 0.125 C 3.640625 0.101562 3.21875 0.0664062 2.78125 0.015625 C 2.34375 -0.0234375 1.941406 -0.0859375 1.578125 -0.171875 C 1.265625 -0.242188 1.109375 -0.394531 1.109375 -0.625 L 1.109375 -1.390625 C 1.109375 -1.617188 1.238281 -1.734375 1.5 -1.734375 C 1.53125 -1.734375 1.550781 -1.734375 1.5625 -1.734375 C 1.570312 -1.734375 1.582031 -1.734375 1.59375 -1.734375 C 1.945312 -1.679688 2.34375 -1.632812 2.78125 -1.59375 C 3.226562 -1.5625 3.65625 -1.535156 4.0625 -1.515625 C 4.46875 -1.492188 4.800781 -1.484375 5.0625 -1.484375 C 5.789062 -1.484375 6.335938 -1.597656 6.703125 -1.828125 C 7.078125 -2.054688 7.265625 -2.46875 7.265625 -3.0625 C 7.265625 -3.394531 7.144531 -3.691406 6.90625 -3.953125 C 6.664062 -4.210938 6.234375 -4.523438 5.609375 -4.890625 L 3.359375 -6.21875 C 2.679688 -6.632812 2.132812 -7.09375 1.71875 -7.59375 C 1.3125 -8.09375 1.109375 -8.691406 1.109375 -9.390625 C 1.109375 -10.148438 1.285156 -10.742188 1.640625 -11.171875 C 1.992188 -11.609375 2.472656 -11.910156 3.078125 -12.078125 C 3.679688 -12.242188 4.359375 -12.328125 5.109375 -12.328125 C 5.734375 -12.328125 6.335938 -12.300781 6.921875 -12.25 C 7.503906 -12.195312 8.050781 -12.128906 8.5625 -12.046875 C 8.84375 -12.003906 8.984375 -11.859375 8.984375 -11.609375 L 8.984375 -10.875 C 8.984375 -10.625 8.859375 -10.5 8.609375 -10.5 C 8.597656 -10.5 8.585938 -10.5 8.578125 -10.5 C 8.566406 -10.5 8.554688 -10.5 8.546875 -10.5 C 8.160156 -10.519531 7.644531 -10.550781 7 -10.59375 C 6.363281 -10.644531 5.734375 -10.671875 5.109375 -10.671875 C 4.492188 -10.671875 4 -10.597656 3.625 -10.453125 C 3.25 -10.304688 3.0625 -9.953125 3.0625 -9.390625 C 3.0625 -9.066406 3.1875 -8.773438 3.4375 -8.515625 C 3.695312 -8.265625 4.078125 -7.992188 4.578125 -7.703125 L 6.78125 -6.40625 C 7.6875 -5.851562 8.316406 -5.316406 8.671875 -4.796875 C 9.023438 -4.285156 9.203125 -3.707031 9.203125 -3.0625 Z M 9.203125 -3.0625 "/></g></g></g><g fill="#ffffff" fill-opacity="1"><g transform="translate(27.860862, 18.446851)"><g><path d="M 10.875 -5.3125 C 10.875 -3.65625 10.484375 -2.328125 9.703125 -1.328125 C 8.929688 -0.335938 7.710938 0.15625 6.046875 0.15625 C 5.378906 0.15625 4.707031 0.125 4.03125 0.0625 C 3.351562 0.0078125 2.664062 -0.0820312 1.96875 -0.21875 C 1.78125 -0.25 1.65625 -0.304688 1.59375 -0.390625 C 1.53125 -0.472656 1.5 -0.585938 1.5 -0.734375 L 1.5 -16.234375 C 1.5 -16.347656 1.535156 -16.445312 1.609375 -16.53125 C 1.691406 -16.613281 1.789062 -16.65625 1.90625 -16.65625 L 3.03125 -16.65625 C 3.144531 -16.65625 3.242188 -16.613281 3.328125 -16.53125 C 3.410156 -16.445312 3.453125 -16.347656 3.453125 -16.234375 L 3.453125 -12.109375 C 3.878906 -12.179688 4.328125 -12.234375 4.796875 -12.265625 C 5.273438 -12.304688 5.691406 -12.328125 6.046875 -12.328125 C 7.648438 -12.328125 8.851562 -11.859375 9.65625 -10.921875 C 10.46875 -9.984375 10.875 -8.644531 10.875 -6.90625 Z M 8.921875 -5.3125 L 8.921875 -6.90625 C 8.921875 -8.082031 8.710938 -8.992188 8.296875 -9.640625 C 7.890625 -10.296875 7.140625 -10.625 6.046875 -10.625 C 5.703125 -10.625 5.273438 -10.613281 4.765625 -10.59375 C 4.253906 -10.582031 3.816406 -10.539062 3.453125 -10.46875 L 3.453125 -1.6875 C 3.835938 -1.65625 4.269531 -1.625 4.75 -1.59375 C 5.238281 -1.5625 5.671875 -1.546875 6.046875 -1.546875 C 7.140625 -1.546875 7.890625 -1.867188 8.296875 -2.515625 C 8.710938 -3.171875 8.921875 -4.101562 8.921875 -5.3125 Z M 8.921875 -5.3125 "/></g></g></g><g fill="#ffffff" fill-opacity="1"><g transform="translate(39.839519, 18.446851)"><g><path d="M 10.953125 -5.25 C 10.953125 -3.625 10.535156 -2.316406 9.703125 -1.328125 C 8.867188 -0.335938 7.640625 0.15625 6.015625 0.15625 C 4.398438 0.15625 3.175781 -0.335938 2.34375 -1.328125 C 1.519531 -2.316406 1.109375 -3.625 1.109375 -5.25 L 1.109375 -6.9375 C 1.109375 -8.550781 1.519531 -9.851562 2.34375 -10.84375 C 3.175781 -11.832031 4.398438 -12.328125 6.015625 -12.328125 C 7.640625 -12.328125 8.867188 -11.832031 9.703125 -10.84375 C 10.535156 -9.851562 10.953125 -8.550781 10.953125 -6.9375 Z M 9.015625 -5.25 L 9.015625 -6.9375 C 9.015625 -8.070312 8.773438 -8.96875 8.296875 -9.625 C 7.828125 -10.289062 7.066406 -10.625 6.015625 -10.625 C 4.984375 -10.625 4.234375 -10.289062 3.765625 -9.625 C 3.296875 -8.96875 3.0625 -8.070312 3.0625 -6.9375 L 3.0625 -5.25 C 3.0625 -4.125 3.296875 -3.222656 3.765625 -2.546875 C 4.234375 -1.878906 4.984375 -1.546875 6.015625 -1.546875 C 7.054688 -1.546875 7.816406 -1.878906 8.296875 -2.546875 C 8.773438 -3.210938 9.015625 -4.113281 9.015625 -5.25 Z M 9.015625 -5.25 "/></g></g></g><g fill="#ffffff" fill-opacity="1"><g transform="translate(51.906735, 18.446851)"><g><path d="M 10.828125 -0.4375 C 10.828125 -0.320312 10.78125 -0.21875 10.6875 -0.125 C 10.601562 -0.0390625 10.503906 0 10.390625 0 L 9.328125 0 C 9.203125 0 9.09375 -0.0390625 9 -0.125 C 8.914062 -0.21875 8.875 -0.320312 8.875 -0.4375 L 8.875 -7.734375 C 8.875 -8.847656 8.675781 -9.613281 8.28125 -10.03125 C 7.894531 -10.445312 7.28125 -10.65625 6.4375 -10.65625 C 5.976562 -10.65625 5.492188 -10.570312 4.984375 -10.40625 C 4.484375 -10.238281 3.972656 -10.03125 3.453125 -9.78125 L 3.453125 -0.4375 C 3.453125 -0.332031 3.40625 -0.234375 3.3125 -0.140625 C 3.226562 -0.046875 3.128906 0 3.015625 0 L 1.921875 0 C 1.816406 0 1.71875 -0.0390625 1.625 -0.125 C 1.539062 -0.21875 1.5 -0.320312 1.5 -0.4375 L 1.5 -11.734375 C 1.5 -11.847656 1.539062 -11.945312 1.625 -12.03125 C 1.707031 -12.125 1.804688 -12.171875 1.921875 -12.171875 L 3.03125 -12.171875 C 3.144531 -12.171875 3.242188 -12.125 3.328125 -12.03125 C 3.410156 -11.945312 3.453125 -11.847656 3.453125 -11.734375 L 3.453125 -11.3125 C 4.054688 -11.65625 4.628906 -11.910156 5.171875 -12.078125 C 5.722656 -12.242188 6.320312 -12.328125 6.96875 -12.328125 C 8.300781 -12.328125 9.273438 -11.925781 9.890625 -11.125 C 10.515625 -10.332031 10.828125 -9.203125 10.828125 -7.734375 Z M 10.828125 -0.4375 "/></g></g></g></g></g></g></svg>