<svg xmlns="http://www.w3.org/2000/svg" xmlns:xlink="http://www.w3.org/1999/xlink" width="140" zoomAndPan="magnify" viewBox="0 0 104.88 30.000001" height="40" preserveAspectRatio="xMidYMid meet" version="1.0"><defs><g/><clipPath id="d26c3a7d96"><path d="M 1.632812 10.160156 L 5.988281 10.160156 L 5.988281 18.871094 L 1.632812 18.871094 Z M 1.632812 10.160156 " clip-rule="nonzero"/></clipPath><clipPath id="84bdde2e21"><path d="M 1.632812 10.160156 C -0.773438 10.160156 -2.722656 12.109375 -2.722656 14.515625 C -2.722656 16.921875 -0.773438 18.871094 1.632812 18.871094 C 4.039062 18.871094 5.988281 16.921875 5.988281 14.515625 C 5.988281 12.109375 4.039062 10.160156 1.632812 10.160156 Z M 1.632812 10.160156 " clip-rule="nonzero"/></clipPath><clipPath id="787cef0a2e"><path d="M 0.632812 0.160156 L 4.988281 0.160156 L 4.988281 8.871094 L 0.632812 8.871094 Z M 0.632812 0.160156 " clip-rule="nonzero"/></clipPath><clipPath id="b47da08365"><path d="M 0.632812 0.160156 C -1.773438 0.160156 -3.722656 2.109375 -3.722656 4.515625 C -3.722656 6.921875 -1.773438 8.871094 0.632812 8.871094 C 3.039062 8.871094 4.988281 6.921875 4.988281 4.515625 C 4.988281 2.109375 3.039062 0.160156 0.632812 0.160156 Z M 0.632812 0.160156 " clip-rule="nonzero"/></clipPath><clipPath id="8ac60a3d8c"><rect x="0" width="5" y="0" height="9"/></clipPath><clipPath id="bfb2281ec6"><path d="M 1.632812 1 L 15 1 L 15 28 L 1.632812 28 Z M 1.632812 1 " clip-rule="nonzero"/></clipPath><clipPath id="04567900fb"><path d="M 17 5 L 103.128906 5 L 103.128906 23 L 17 23 Z M 17 5 " clip-rule="nonzero"/></clipPath><clipPath id="4d8abf9f98"><path d="M 49 0.109375 L 57 0.109375 L 57 13 L 49 13 Z M 49 0.109375 " clip-rule="nonzero"/></clipPath><clipPath id="0ece84b424"><rect x="0" width="87" y="0" height="18"/></clipPath></defs><g clip-path="url(#d26c3a7d96)"><g clip-path="url(#84bdde2e21)"><g transform="matrix(1, 0, 0, 1, 1, 10)"><g clip-path="url(#8ac60a3d8c)"><g clip-path="url(#787cef0a2e)"><g clip-path="url(#b47da08365)"><path fill="#ffffff" d="M -3.722656 0.160156 L 4.988281 0.160156 L 4.988281 8.871094 L -3.722656 8.871094 Z M -3.722656 0.160156 " fill-opacity="1" fill-rule="nonzero"/></g></g></g></g></g></g><g clip-path="url(#bfb2281ec6)"><path fill="#ffffff" d="M 1.542969 27.996094 C 0.21875 27.992188 -1.078125 27.800781 -2.34375 27.417969 C -3.609375 27.03125 -4.792969 26.472656 -5.894531 25.738281 C -6.996094 25 -7.964844 24.121094 -8.804688 23.097656 C -9.644531 22.074219 -10.316406 20.953125 -10.824219 19.730469 C -11.332031 18.507812 -11.648438 17.234375 -11.78125 15.917969 C -11.910156 14.601562 -11.84375 13.292969 -11.585938 11.996094 C -11.328125 10.695312 -10.886719 9.464844 -10.265625 8.296875 C -9.640625 7.128906 -8.859375 6.078125 -7.925781 5.140625 C -7.300781 4.527344 -6.625 3.984375 -5.894531 3.503906 C -5.164062 3.027344 -4.394531 2.621094 -3.585938 2.292969 C -2.773438 1.964844 -1.941406 1.71875 -1.082031 1.554688 C -0.226562 1.390625 0.640625 1.308594 1.511719 1.3125 C 2.386719 1.316406 3.25 1.40625 4.105469 1.582031 C 4.960938 1.753906 5.792969 2.007812 6.601562 2.34375 C 7.40625 2.679688 8.171875 3.09375 8.898438 3.578125 C 9.621094 4.0625 10.292969 4.617188 10.910156 5.234375 C 11.53125 5.851562 12.082031 6.523438 12.566406 7.246094 C 13.054688 7.972656 13.464844 8.738281 13.800781 9.542969 C 14.136719 10.351562 14.394531 11.179688 14.566406 12.039062 C 14.742188 12.894531 14.832031 13.757812 14.835938 14.632812 C 14.839844 15.503906 14.761719 16.371094 14.59375 17.226562 C 14.429688 18.085938 14.183594 18.917969 13.855469 19.726562 C 13.527344 20.539062 13.125 21.308594 12.648438 22.039062 C 12.167969 22.769531 11.625 23.445312 11.011719 24.070312 C 9.761719 25.332031 8.3125 26.300781 6.671875 26.980469 C 5.027344 27.660156 3.320312 28 1.542969 27.996094 Z M 1.542969 3.851562 C -4.386719 3.851562 -9.210938 8.675781 -9.210938 14.605469 C -9.210938 20.535156 -4.386719 25.359375 1.542969 25.359375 C 7.472656 25.359375 12.296875 20.535156 12.296875 14.605469 C 12.296875 8.675781 7.472656 3.851562 1.542969 3.851562 Z M 1.542969 3.851562 " fill-opacity="1" fill-rule="nonzero"/></g><g clip-path="url(#04567900fb)"><g transform="matrix(1, 0, 0, 1, 17, 5)"><g clip-path="url(#0ece84b424)"><g fill="#ffffff" fill-opacity="1"><g transform="translate(0.516965, 12.895096)"><g><path d="M 12.140625 -0.328125 C 12.140625 -0.242188 12.113281 -0.164062 12.0625 -0.09375 C 12.007812 -0.03125 11.9375 0 11.84375 0 L 10.984375 0 C 10.890625 0 10.816406 -0.03125 10.765625 -0.09375 C 10.710938 -0.164062 10.6875 -0.242188 10.6875 -0.328125 L 10.6875 -6.359375 C 10.6875 -6.835938 10.617188 -7.191406 10.484375 -7.421875 C 10.359375 -7.648438 10.1875 -7.800781 9.96875 -7.875 C 9.75 -7.945312 9.488281 -7.984375 9.1875 -7.984375 L 8.796875 -7.984375 C 8.265625 -7.984375 7.894531 -7.914062 7.6875 -7.78125 C 7.476562 -7.644531 7.375 -7.335938 7.375 -6.859375 L 7.375 -0.328125 C 7.375 -0.242188 7.34375 -0.164062 7.28125 -0.09375 C 7.226562 -0.03125 7.160156 0 7.078125 0 L 6.203125 0 C 6.117188 0 6.046875 -0.03125 5.984375 -0.09375 C 5.929688 -0.164062 5.90625 -0.242188 5.90625 -0.328125 L 5.90625 -6.859375 C 5.90625 -7.335938 5.800781 -7.644531 5.59375 -7.78125 C 5.382812 -7.914062 5.007812 -7.984375 4.46875 -7.984375 L 4.09375 -7.984375 C 3.800781 -7.984375 3.539062 -7.945312 3.3125 -7.875 C 3.09375 -7.800781 2.914062 -7.648438 2.78125 -7.421875 C 2.65625 -7.191406 2.59375 -6.835938 2.59375 -6.359375 L 2.59375 -0.328125 C 2.59375 -0.242188 2.5625 -0.164062 2.5 -0.09375 C 2.445312 -0.03125 2.378906 0 2.296875 0 L 1.4375 0 C 1.34375 0 1.265625 -0.03125 1.203125 -0.09375 C 1.148438 -0.164062 1.125 -0.242188 1.125 -0.328125 L 1.125 -6.359375 C 1.125 -7.210938 1.367188 -7.910156 1.859375 -8.453125 C 2.347656 -8.992188 3.09375 -9.265625 4.09375 -9.265625 L 4.46875 -9.265625 C 4.96875 -9.265625 5.390625 -9.222656 5.734375 -9.140625 C 6.078125 -9.054688 6.378906 -8.898438 6.640625 -8.671875 C 6.890625 -8.890625 7.1875 -9.039062 7.53125 -9.125 C 7.875 -9.21875 8.296875 -9.265625 8.796875 -9.265625 L 9.1875 -9.265625 C 10.1875 -9.265625 10.925781 -8.992188 11.40625 -8.453125 C 11.894531 -7.910156 12.140625 -7.210938 12.140625 -6.359375 Z M 12.140625 -0.328125 "/></g></g></g><g fill="#ffffff" fill-opacity="1"><g transform="translate(13.79305, 12.895096)"><g><path d="M 8.234375 -3.9375 C 8.234375 -2.71875 7.921875 -1.738281 7.296875 -1 C 6.671875 -0.257812 5.75 0.109375 4.53125 0.109375 C 3.3125 0.109375 2.390625 -0.257812 1.765625 -1 C 1.140625 -1.738281 0.828125 -2.71875 0.828125 -3.9375 L 0.828125 -5.203125 C 0.828125 -6.421875 1.140625 -7.398438 1.765625 -8.140625 C 2.390625 -8.890625 3.3125 -9.265625 4.53125 -9.265625 C 5.75 -9.265625 6.671875 -8.890625 7.296875 -8.140625 C 7.921875 -7.398438 8.234375 -6.421875 8.234375 -5.203125 Z M 6.765625 -3.9375 L 6.765625 -5.203125 C 6.765625 -6.054688 6.585938 -6.734375 6.234375 -7.234375 C 5.878906 -7.734375 5.3125 -7.984375 4.53125 -7.984375 C 3.75 -7.984375 3.179688 -7.734375 2.828125 -7.234375 C 2.472656 -6.734375 2.296875 -6.054688 2.296875 -5.203125 L 2.296875 -3.9375 C 2.296875 -3.09375 2.472656 -2.421875 2.828125 -1.921875 C 3.179688 -1.421875 3.75 -1.171875 4.53125 -1.171875 C 5.300781 -1.171875 5.863281 -1.414062 6.21875 -1.90625 C 6.582031 -2.40625 6.765625 -3.082031 6.765625 -3.9375 Z M 6.765625 -3.9375 "/></g></g></g><g fill="#ffffff" fill-opacity="1"><g transform="translate(22.86005, 12.895096)"><g><path d="M 8.140625 -0.328125 C 8.140625 -0.242188 8.109375 -0.164062 8.046875 -0.09375 C 7.992188 -0.03125 7.925781 0 7.84375 0 L 6.96875 0 C 6.882812 0 6.8125 -0.03125 6.75 -0.09375 C 6.695312 -0.164062 6.671875 -0.242188 6.671875 -0.328125 L 6.671875 -6.28125 C 6.671875 -6.894531 6.570312 -7.332031 6.375 -7.59375 C 6.175781 -7.863281 5.789062 -8 5.21875 -8 L 4.046875 -8 C 3.472656 -8 3.085938 -7.863281 2.890625 -7.59375 C 2.691406 -7.332031 2.59375 -6.894531 2.59375 -6.28125 L 2.59375 -0.328125 C 2.59375 -0.242188 2.5625 -0.164062 2.5 -0.09375 C 2.445312 -0.03125 2.378906 0 2.296875 0 L 1.4375 0 C 1.34375 0 1.265625 -0.03125 1.203125 -0.09375 C 1.148438 -0.164062 1.125 -0.242188 1.125 -0.328125 L 1.125 -6.28125 C 1.125 -6.914062 1.222656 -7.429688 1.421875 -7.828125 C 1.617188 -8.222656 1.863281 -8.523438 2.15625 -8.734375 C 2.457031 -8.941406 2.773438 -9.082031 3.109375 -9.15625 C 3.453125 -9.226562 3.765625 -9.265625 4.046875 -9.265625 L 5.21875 -9.265625 C 5.507812 -9.265625 5.820312 -9.226562 6.15625 -9.15625 C 6.488281 -9.082031 6.804688 -8.941406 7.109375 -8.734375 C 7.410156 -8.523438 7.65625 -8.222656 7.84375 -7.828125 C 8.039062 -7.429688 8.140625 -6.914062 8.140625 -6.28125 Z M 8.140625 -0.328125 "/></g></g></g><g fill="#ffffff" fill-opacity="1"><g transform="translate(32.126686, 12.895096)"><g><path d="M 8.234375 -3.9375 C 8.234375 -2.71875 7.921875 -1.738281 7.296875 -1 C 6.671875 -0.257812 5.75 0.109375 4.53125 0.109375 C 3.3125 0.109375 2.390625 -0.257812 1.765625 -1 C 1.140625 -1.738281 0.828125 -2.71875 0.828125 -3.9375 L 0.828125 -5.203125 C 0.828125 -6.421875 1.140625 -7.398438 1.765625 -8.140625 C 2.390625 -8.890625 3.3125 -9.265625 4.53125 -9.265625 C 5.75 -9.265625 6.671875 -8.890625 7.296875 -8.140625 C 7.921875 -7.398438 8.234375 -6.421875 8.234375 -5.203125 Z M 6.765625 -3.9375 L 6.765625 -5.203125 C 6.765625 -6.054688 6.585938 -6.734375 6.234375 -7.234375 C 5.878906 -7.734375 5.3125 -7.984375 4.53125 -7.984375 C 3.75 -7.984375 3.179688 -7.734375 2.828125 -7.234375 C 2.472656 -6.734375 2.296875 -6.054688 2.296875 -5.203125 L 2.296875 -3.9375 C 2.296875 -3.09375 2.472656 -2.421875 2.828125 -1.921875 C 3.179688 -1.421875 3.75 -1.171875 4.53125 -1.171875 C 5.300781 -1.171875 5.863281 -1.414062 6.21875 -1.90625 C 6.582031 -2.40625 6.765625 -3.082031 6.765625 -3.9375 Z M 6.765625 -3.9375 "/></g></g></g><g fill="#ffffff" fill-opacity="1"><g transform="translate(41.193686, 12.895096)"><g><path d="M 6.796875 -0.4375 C 6.796875 -0.320312 6.769531 -0.234375 6.71875 -0.171875 C 6.675781 -0.117188 6.585938 -0.0820312 6.453125 -0.0625 C 6.179688 -0.0195312 5.863281 0.015625 5.5 0.046875 C 5.132812 0.0859375 4.757812 0.109375 4.375 0.109375 C 3.238281 0.109375 2.363281 -0.253906 1.75 -0.984375 C 1.132812 -1.722656 0.828125 -2.703125 0.828125 -3.921875 L 0.828125 -5.21875 C 0.828125 -6.445312 1.128906 -7.425781 1.734375 -8.15625 C 2.347656 -8.894531 3.226562 -9.265625 4.375 -9.265625 C 4.757812 -9.265625 5.132812 -9.25 5.5 -9.21875 C 5.863281 -9.1875 6.179688 -9.140625 6.453125 -9.078125 C 6.585938 -9.054688 6.675781 -9.019531 6.71875 -8.96875 C 6.769531 -8.925781 6.796875 -8.84375 6.796875 -8.71875 L 6.796875 -8.125 C 6.796875 -8.039062 6.765625 -7.976562 6.703125 -7.9375 C 6.648438 -7.894531 6.582031 -7.875 6.5 -7.875 C 6.488281 -7.875 6.476562 -7.875 6.46875 -7.875 C 6.457031 -7.875 6.445312 -7.875 6.4375 -7.875 C 6.070312 -7.914062 5.738281 -7.941406 5.4375 -7.953125 C 5.144531 -7.972656 4.789062 -7.984375 4.375 -7.984375 C 3.707031 -7.984375 3.191406 -7.757812 2.828125 -7.3125 C 2.472656 -6.863281 2.296875 -6.164062 2.296875 -5.21875 L 2.296875 -3.921875 C 2.296875 -2.992188 2.472656 -2.300781 2.828125 -1.84375 C 3.179688 -1.394531 3.695312 -1.171875 4.375 -1.171875 C 4.789062 -1.171875 5.144531 -1.175781 5.4375 -1.1875 C 5.738281 -1.207031 6.070312 -1.238281 6.4375 -1.28125 C 6.445312 -1.28125 6.457031 -1.28125 6.46875 -1.28125 C 6.476562 -1.28125 6.488281 -1.28125 6.5 -1.28125 C 6.582031 -1.28125 6.648438 -1.257812 6.703125 -1.21875 C 6.765625 -1.1875 6.796875 -1.125 6.796875 -1.03125 Z M 6.796875 -0.4375 "/></g></g></g><g clip-path="url(#4d8abf9f98)"><g fill="#ffffff" fill-opacity="1"><g transform="translate(48.713472, 12.895096)"><g><path d="M 8.140625 -0.328125 C 8.140625 -0.242188 8.101562 -0.164062 8.03125 -0.09375 C 7.96875 -0.03125 7.890625 0 7.796875 0 L 7 0 C 6.914062 0 6.835938 -0.03125 6.765625 -0.09375 C 6.703125 -0.164062 6.671875 -0.242188 6.671875 -0.328125 L 6.671875 -5.8125 C 6.671875 -6.644531 6.507812 -7.210938 6.1875 -7.515625 C 5.863281 -7.828125 5.429688 -7.984375 4.890625 -7.984375 C 4.640625 -7.984375 4.285156 -7.945312 3.828125 -7.875 C 3.367188 -7.800781 2.957031 -7.679688 2.59375 -7.515625 L 2.59375 -0.328125 C 2.59375 -0.253906 2.554688 -0.179688 2.484375 -0.109375 C 2.421875 -0.0351562 2.347656 0 2.265625 0 L 1.453125 0 C 1.367188 0 1.289062 -0.03125 1.21875 -0.09375 C 1.15625 -0.164062 1.125 -0.242188 1.125 -0.328125 L 1.125 -12.1875 C 1.125 -12.269531 1.15625 -12.34375 1.21875 -12.40625 C 1.28125 -12.476562 1.359375 -12.515625 1.453125 -12.515625 L 2.28125 -12.515625 C 2.363281 -12.515625 2.4375 -12.476562 2.5 -12.40625 C 2.5625 -12.34375 2.59375 -12.269531 2.59375 -12.1875 L 2.59375 -8.75 C 2.988281 -8.925781 3.421875 -9.054688 3.890625 -9.140625 C 4.367188 -9.222656 4.785156 -9.265625 5.140625 -9.265625 C 6.023438 -9.265625 6.742188 -8.992188 7.296875 -8.453125 C 7.859375 -7.910156 8.140625 -7.03125 8.140625 -5.8125 Z M 8.140625 -0.328125 "/></g></g></g></g><g fill="#ffffff" fill-opacity="1"><g transform="translate(57.980108, 12.895096)"><g><path d="M 5.265625 -8.25 C 5.265625 -8.164062 5.242188 -8.097656 5.203125 -8.046875 C 5.160156 -8.003906 5.0625 -7.984375 4.90625 -7.984375 C 4.34375 -7.984375 3.894531 -7.972656 3.5625 -7.953125 C 3.238281 -7.929688 2.914062 -7.890625 2.59375 -7.828125 L 2.59375 -0.328125 C 2.59375 -0.253906 2.5625 -0.179688 2.5 -0.109375 C 2.445312 -0.0351562 2.378906 0 2.296875 0 L 1.4375 0 C 1.351562 0 1.28125 -0.03125 1.21875 -0.09375 C 1.15625 -0.164062 1.125 -0.242188 1.125 -0.328125 L 1.125 -8.421875 C 1.125 -8.585938 1.226562 -8.710938 1.4375 -8.796875 C 1.90625 -9.015625 2.425781 -9.144531 3 -9.1875 C 3.582031 -9.238281 4.21875 -9.265625 4.90625 -9.265625 C 5.019531 -9.265625 5.109375 -9.253906 5.171875 -9.234375 C 5.234375 -9.210938 5.265625 -9.140625 5.265625 -9.015625 Z M 5.265625 -8.25 "/></g></g></g><g fill="#ffffff" fill-opacity="1"><g transform="translate(63.869498, 12.895096)"><g><path d="M 8.234375 -3.9375 C 8.234375 -2.71875 7.921875 -1.738281 7.296875 -1 C 6.671875 -0.257812 5.75 0.109375 4.53125 0.109375 C 3.3125 0.109375 2.390625 -0.257812 1.765625 -1 C 1.140625 -1.738281 0.828125 -2.71875 0.828125 -3.9375 L 0.828125 -5.203125 C 0.828125 -6.421875 1.140625 -7.398438 1.765625 -8.140625 C 2.390625 -8.890625 3.3125 -9.265625 4.53125 -9.265625 C 5.75 -9.265625 6.671875 -8.890625 7.296875 -8.140625 C 7.921875 -7.398438 8.234375 -6.421875 8.234375 -5.203125 Z M 6.765625 -3.9375 L 6.765625 -5.203125 C 6.765625 -6.054688 6.585938 -6.734375 6.234375 -7.234375 C 5.878906 -7.734375 5.3125 -7.984375 4.53125 -7.984375 C 3.75 -7.984375 3.179688 -7.734375 2.828125 -7.234375 C 2.472656 -6.734375 2.296875 -6.054688 2.296875 -5.203125 L 2.296875 -3.9375 C 2.296875 -3.09375 2.472656 -2.421875 2.828125 -1.921875 C 3.179688 -1.421875 3.75 -1.171875 4.53125 -1.171875 C 5.300781 -1.171875 5.863281 -1.414062 6.21875 -1.90625 C 6.582031 -2.40625 6.765625 -3.082031 6.765625 -3.9375 Z M 6.765625 -3.9375 "/></g></g></g><g fill="#ffffff" fill-opacity="1"><g transform="translate(72.936498, 12.895096)"><g><path d="M 12.140625 -0.328125 C 12.140625 -0.242188 12.113281 -0.164062 12.0625 -0.09375 C 12.007812 -0.03125 11.9375 0 11.84375 0 L 10.984375 0 C 10.890625 0 10.816406 -0.03125 10.765625 -0.09375 C 10.710938 -0.164062 10.6875 -0.242188 10.6875 -0.328125 L 10.6875 -6.359375 C 10.6875 -6.835938 10.617188 -7.191406 10.484375 -7.421875 C 10.359375 -7.648438 10.1875 -7.800781 9.96875 -7.875 C 9.75 -7.945312 9.488281 -7.984375 9.1875 -7.984375 L 8.796875 -7.984375 C 8.265625 -7.984375 7.894531 -7.914062 7.6875 -7.78125 C 7.476562 -7.644531 7.375 -7.335938 7.375 -6.859375 L 7.375 -0.328125 C 7.375 -0.242188 7.34375 -0.164062 7.28125 -0.09375 C 7.226562 -0.03125 7.160156 0 7.078125 0 L 6.203125 0 C 6.117188 0 6.046875 -0.03125 5.984375 -0.09375 C 5.929688 -0.164062 5.90625 -0.242188 5.90625 -0.328125 L 5.90625 -6.859375 C 5.90625 -7.335938 5.800781 -7.644531 5.59375 -7.78125 C 5.382812 -7.914062 5.007812 -7.984375 4.46875 -7.984375 L 4.09375 -7.984375 C 3.800781 -7.984375 3.539062 -7.945312 3.3125 -7.875 C 3.09375 -7.800781 2.914062 -7.648438 2.78125 -7.421875 C 2.65625 -7.191406 2.59375 -6.835938 2.59375 -6.359375 L 2.59375 -0.328125 C 2.59375 -0.242188 2.5625 -0.164062 2.5 -0.09375 C 2.445312 -0.03125 2.378906 0 2.296875 0 L 1.4375 0 C 1.34375 0 1.265625 -0.03125 1.203125 -0.09375 C 1.148438 -0.164062 1.125 -0.242188 1.125 -0.328125 L 1.125 -6.359375 C 1.125 -7.210938 1.367188 -7.910156 1.859375 -8.453125 C 2.347656 -8.992188 3.09375 -9.265625 4.09375 -9.265625 L 4.46875 -9.265625 C 4.96875 -9.265625 5.390625 -9.222656 5.734375 -9.140625 C 6.078125 -9.054688 6.378906 -8.898438 6.640625 -8.671875 C 6.890625 -8.890625 7.1875 -9.039062 7.53125 -9.125 C 7.875 -9.21875 8.296875 -9.265625 8.796875 -9.265625 L 9.1875 -9.265625 C 10.1875 -9.265625 10.925781 -8.992188 11.40625 -8.453125 C 11.894531 -7.910156 12.140625 -7.210938 12.140625 -6.359375 Z M 12.140625 -0.328125 "/></g></g></g></g></g></g></svg>