<svg xmlns="http://www.w3.org/2000/svg" xmlns:xlink="http://www.w3.org/1999/xlink" width="140" zoomAndPan="magnify" viewBox="0 0 104.88 30.000001" height="40" preserveAspectRatio="xMidYMid meet" version="1.0"><defs><g/><clipPath id="b05f9a51cb"><path d="M 1.632812 0 L 103.128906 0 L 103.128906 29.03125 L 1.632812 29.03125 Z M 1.632812 0 " clip-rule="nonzero"/></clipPath><clipPath id="75e06dd16f"><path d="M 97 22 L 102.128906 22 L 102.128906 28 L 97 28 Z M 97 22 " clip-rule="nonzero"/></clipPath><clipPath id="a6b832168a"><rect x="0" width="103" y="0" height="30"/></clipPath></defs><g clip-path="url(#b05f9a51cb)"><g transform="matrix(1, 0, 0, 1, 1, 0.000000000000005692)"><g clip-path="url(#a6b832168a)"><g fill="#ffffff" fill-opacity="1"><g transform="translate(-0.360108, 27.372497)"><g><path d="M 13.609375 0.34375 C 11.253906 0.34375 9.191406 -0.171875 7.421875 -1.203125 C 5.660156 -2.242188 4.296875 -3.707031 3.328125 -5.59375 C 2.359375 -7.476562 1.875 -9.691406 1.875 -12.234375 C 1.875 -14.148438 2.148438 -15.875 2.703125 -17.40625 C 3.253906 -18.9375 4.039062 -20.25 5.0625 -21.34375 C 6.09375 -22.445312 7.332031 -23.289062 8.78125 -23.875 C 10.226562 -24.46875 11.835938 -24.765625 13.609375 -24.765625 C 15.992188 -24.765625 18.0625 -24.25 19.8125 -23.21875 C 21.570312 -22.195312 22.9375 -20.75 23.90625 -18.875 C 24.875 -17.007812 25.359375 -14.804688 25.359375 -12.265625 C 25.359375 -10.347656 25.078125 -8.613281 24.515625 -7.0625 C 23.960938 -5.519531 23.171875 -4.191406 22.140625 -3.078125 C 21.117188 -1.972656 19.882812 -1.125 18.4375 -0.53125 C 17 0.0507812 15.390625 0.34375 13.609375 0.34375 Z M 13.609375 -3.46875 C 15.109375 -3.46875 16.382812 -3.8125 17.4375 -4.5 C 18.488281 -5.195312 19.296875 -6.203125 19.859375 -7.515625 C 20.429688 -8.828125 20.71875 -10.398438 20.71875 -12.234375 C 20.71875 -15.003906 20.097656 -17.148438 18.859375 -18.671875 C 17.628906 -20.191406 15.878906 -20.953125 13.609375 -20.953125 C 12.128906 -20.953125 10.859375 -20.609375 9.796875 -19.921875 C 8.734375 -19.242188 7.921875 -18.253906 7.359375 -16.953125 C 6.796875 -15.648438 6.515625 -14.078125 6.515625 -12.234375 C 6.515625 -9.484375 7.132812 -7.332031 8.375 -5.78125 C 9.625 -4.238281 11.367188 -3.46875 13.609375 -3.46875 Z M 13.609375 -3.46875 "/></g></g></g><g fill="#ffffff" fill-opacity="1"><g transform="translate(26.830112, 27.372497)"><g><path d="M 11.078125 0.34375 C 10.066406 0.34375 9.050781 0.265625 8.03125 0.109375 C 7.019531 -0.0351562 6.0625 -0.265625 5.15625 -0.578125 C 4.257812 -0.890625 3.453125 -1.273438 2.734375 -1.734375 C 2.316406 -2.003906 2.023438 -2.335938 1.859375 -2.734375 C 1.703125 -3.128906 1.648438 -3.515625 1.703125 -3.890625 C 1.765625 -4.273438 1.914062 -4.609375 2.15625 -4.890625 C 2.40625 -5.179688 2.710938 -5.363281 3.078125 -5.4375 C 3.453125 -5.507812 3.859375 -5.40625 4.296875 -5.125 C 5.304688 -4.519531 6.378906 -4.078125 7.515625 -3.796875 C 8.648438 -3.523438 9.835938 -3.390625 11.078125 -3.390625 C 12.910156 -3.390625 14.238281 -3.695312 15.0625 -4.3125 C 15.894531 -4.925781 16.3125 -5.71875 16.3125 -6.6875 C 16.3125 -7.488281 16.015625 -8.117188 15.421875 -8.578125 C 14.835938 -9.046875 13.832031 -9.429688 12.40625 -9.734375 L 8.59375 -10.53125 C 6.394531 -10.988281 4.757812 -11.765625 3.6875 -12.859375 C 2.613281 -13.960938 2.078125 -15.414062 2.078125 -17.21875 C 2.078125 -18.34375 2.304688 -19.367188 2.765625 -20.296875 C 3.234375 -21.222656 3.890625 -22.019531 4.734375 -22.6875 C 5.578125 -23.351562 6.578125 -23.863281 7.734375 -24.21875 C 8.898438 -24.582031 10.191406 -24.765625 11.609375 -24.765625 C 12.992188 -24.765625 14.304688 -24.59375 15.546875 -24.25 C 16.796875 -23.90625 17.914062 -23.394531 18.90625 -22.71875 C 19.28125 -22.46875 19.53125 -22.15625 19.65625 -21.78125 C 19.78125 -21.414062 19.804688 -21.050781 19.734375 -20.6875 C 19.671875 -20.332031 19.507812 -20.03125 19.25 -19.78125 C 19 -19.53125 18.679688 -19.378906 18.296875 -19.328125 C 17.921875 -19.285156 17.492188 -19.398438 17.015625 -19.671875 C 16.160156 -20.160156 15.289062 -20.507812 14.40625 -20.71875 C 13.53125 -20.925781 12.582031 -21.03125 11.5625 -21.03125 C 10.5 -21.03125 9.585938 -20.878906 8.828125 -20.578125 C 8.066406 -20.273438 7.484375 -19.851562 7.078125 -19.3125 C 6.679688 -18.769531 6.484375 -18.128906 6.484375 -17.390625 C 6.484375 -16.554688 6.757812 -15.890625 7.3125 -15.390625 C 7.863281 -14.898438 8.8125 -14.515625 10.15625 -14.234375 L 13.921875 -13.4375 C 16.210938 -12.957031 17.914062 -12.195312 19.03125 -11.15625 C 20.15625 -10.113281 20.71875 -8.726562 20.71875 -7 C 20.71875 -5.882812 20.488281 -4.875 20.03125 -3.96875 C 19.582031 -3.070312 18.9375 -2.300781 18.09375 -1.65625 C 17.25 -1.007812 16.238281 -0.515625 15.0625 -0.171875 C 13.882812 0.171875 12.554688 0.34375 11.078125 0.34375 Z M 11.078125 0.34375 "/></g></g></g><g fill="#ffffff" fill-opacity="1"><g transform="translate(48.686202, 27.372497)"><g><path d="M 4.921875 0 C 4.203125 0 3.644531 -0.203125 3.25 -0.609375 C 2.863281 -1.015625 2.671875 -1.570312 2.671875 -2.28125 L 2.671875 -22.28125 C 2.671875 -23.007812 2.859375 -23.566406 3.234375 -23.953125 C 3.617188 -24.335938 4.171875 -24.53125 4.890625 -24.53125 C 5.597656 -24.53125 6.140625 -24.335938 6.515625 -23.953125 C 6.898438 -23.566406 7.09375 -23.007812 7.09375 -22.28125 L 7.09375 -3.78125 L 17.140625 -3.78125 C 17.765625 -3.78125 18.242188 -3.617188 18.578125 -3.296875 C 18.921875 -2.972656 19.09375 -2.507812 19.09375 -1.90625 C 19.09375 -1.300781 18.921875 -0.832031 18.578125 -0.5 C 18.242188 -0.164062 17.765625 0 17.140625 0 Z M 4.921875 0 "/></g></g></g><g fill="#ffffff" fill-opacity="1"><g transform="translate(68.152321, 27.372497)"><g><path d="M 13.609375 0.34375 C 11.253906 0.34375 9.191406 -0.171875 7.421875 -1.203125 C 5.660156 -2.242188 4.296875 -3.707031 3.328125 -5.59375 C 2.359375 -7.476562 1.875 -9.691406 1.875 -12.234375 C 1.875 -14.148438 2.148438 -15.875 2.703125 -17.40625 C 3.253906 -18.9375 4.039062 -20.25 5.0625 -21.34375 C 6.09375 -22.445312 7.332031 -23.289062 8.78125 -23.875 C 10.226562 -24.46875 11.835938 -24.765625 13.609375 -24.765625 C 15.992188 -24.765625 18.0625 -24.25 19.8125 -23.21875 C 21.570312 -22.195312 22.9375 -20.75 23.90625 -18.875 C 24.875 -17.007812 25.359375 -14.804688 25.359375 -12.265625 C 25.359375 -10.347656 25.078125 -8.613281 24.515625 -7.0625 C 23.960938 -5.519531 23.171875 -4.191406 22.140625 -3.078125 C 21.117188 -1.972656 19.882812 -1.125 18.4375 -0.53125 C 17 0.0507812 15.390625 0.34375 13.609375 0.34375 Z M 13.609375 -3.46875 C 15.109375 -3.46875 16.382812 -3.8125 17.4375 -4.5 C 18.488281 -5.195312 19.296875 -6.203125 19.859375 -7.515625 C 20.429688 -8.828125 20.71875 -10.398438 20.71875 -12.234375 C 20.71875 -15.003906 20.097656 -17.148438 18.859375 -18.671875 C 17.628906 -20.191406 15.878906 -20.953125 13.609375 -20.953125 C 12.128906 -20.953125 10.859375 -20.609375 9.796875 -19.921875 C 8.734375 -19.242188 7.921875 -18.253906 7.359375 -16.953125 C 6.796875 -15.648438 6.515625 -14.078125 6.515625 -12.234375 C 6.515625 -9.484375 7.132812 -7.332031 8.375 -5.78125 C 9.625 -4.238281 11.367188 -3.46875 13.609375 -3.46875 Z M 13.609375 -3.46875 "/></g></g></g><g clip-path="url(#75e06dd16f)"><g fill="#ffffff" fill-opacity="1"><g transform="translate(95.342541, 27.372497)"><g><path d="M 4.328125 0.171875 C 3.546875 0.171875 2.914062 -0.0664062 2.4375 -0.546875 C 1.96875 -1.035156 1.734375 -1.660156 1.734375 -2.421875 C 1.734375 -3.160156 1.96875 -3.765625 2.4375 -4.234375 C 2.914062 -4.710938 3.546875 -4.953125 4.328125 -4.953125 C 5.140625 -4.953125 5.769531 -4.710938 6.21875 -4.234375 C 6.664062 -3.765625 6.890625 -3.160156 6.890625 -2.421875 C 6.890625 -1.660156 6.664062 -1.035156 6.21875 -0.546875 C 5.769531 -0.0664062 5.140625 0.171875 4.328125 0.171875 Z M 4.328125 0.171875 "/></g></g></g></g></g></g></g></svg>