<svg xmlns="http://www.w3.org/2000/svg" xmlns:xlink="http://www.w3.org/1999/xlink" width="140" zoomAndPan="magnify" viewBox="0 0 104.88 30.000001" height="40" preserveAspectRatio="xMidYMid meet" version="1.0"><defs><g/><clipPath id="44ba9e1b16"><path d="M 2.359375 21.195312 L 15.785156 21.195312 L 15.785156 29.03125 L 2.359375 29.03125 Z M 2.359375 21.195312 " clip-rule="nonzero"/></clipPath><clipPath id="3021768646"><path d="M 9.074219 21.195312 C 5.363281 21.195312 2.359375 24.199219 2.359375 27.90625 C 2.359375 31.613281 5.363281 34.621094 9.074219 34.621094 C 12.78125 34.621094 15.785156 31.613281 15.785156 27.90625 C 15.785156 24.199219 12.78125 21.195312 9.074219 21.195312 Z M 9.074219 21.195312 " clip-rule="nonzero"/></clipPath><clipPath id="7ee1259e6e"><path d="M 0.359375 0.195312 L 13.785156 0.195312 L 13.785156 8.03125 L 0.359375 8.03125 Z M 0.359375 0.195312 " clip-rule="nonzero"/></clipPath><clipPath id="7cfbcf502c"><path d="M 7.074219 0.195312 C 3.363281 0.195312 0.359375 3.199219 0.359375 6.90625 C 0.359375 10.613281 3.363281 13.621094 7.074219 13.621094 C 10.78125 13.621094 13.785156 10.613281 13.785156 6.90625 C 13.785156 3.199219 10.78125 0.195312 7.074219 0.195312 Z M 7.074219 0.195312 " clip-rule="nonzero"/></clipPath><clipPath id="f12663c5a5"><rect x="0" width="14" y="0" height="9"/></clipPath><clipPath id="506b7fcf1a"><path d="M 1.632812 0 L 28 0 L 28 29.03125 L 1.632812 29.03125 Z M 1.632812 0 " clip-rule="nonzero"/></clipPath><clipPath id="5ee0fa6757"><path d="M 0.632812 0 L 26 0 L 26 29.03125 L 0.632812 29.03125 Z M 0.632812 0 " clip-rule="nonzero"/></clipPath><clipPath id="dc83724119"><rect x="0" width="27" y="0" height="30"/></clipPath><clipPath id="e8f7fc4cfb"><path d="M 4 0 L 22 0 L 22 26 L 4 26 Z M 4 0 " clip-rule="nonzero"/></clipPath><clipPath id="52c1d285b3"><path d="M 4.773438 0.226562 L 22.167969 1.144531 L 20.867188 25.789062 L 3.472656 24.867188 Z M 4.773438 0.226562 " clip-rule="nonzero"/></clipPath><clipPath id="1dc5860996"><path d="M 4.773438 0.226562 L 22.167969 1.144531 L 20.867188 25.789062 L 3.472656 24.867188 Z M 4.773438 0.226562 " clip-rule="nonzero"/></clipPath><clipPath id="a2a3ec71a8"><path d="M 27 6 L 103.128906 6 L 103.128906 23 L 27 23 Z M 27 6 " clip-rule="nonzero"/></clipPath><clipPath id="ede95b12ab"><path d="M 0.183594 2 L 10 2 L 10 13 L 0.183594 13 Z M 0.183594 2 " clip-rule="nonzero"/></clipPath><clipPath id="14b01049cd"><path d="M 57 4 L 67 4 L 67 16.296875 L 57 16.296875 Z M 57 4 " clip-rule="nonzero"/></clipPath><clipPath id="4826a08b52"><rect x="0" width="77" y="0" height="17"/></clipPath></defs><g clip-path="url(#44ba9e1b16)"><g clip-path="url(#3021768646)"><g transform="matrix(1, 0, 0, 1, 2, 21)"><g clip-path="url(#f12663c5a5)"><g clip-path="url(#7ee1259e6e)"><g clip-path="url(#7cfbcf502c)"><path fill="#ffffff" d="M 0.359375 0.195312 L 13.785156 0.195312 L 13.785156 13.621094 L 0.359375 13.621094 Z M 0.359375 0.195312 " fill-opacity="1" fill-rule="nonzero"/></g></g></g></g></g></g><g clip-path="url(#506b7fcf1a)"><g transform="matrix(1, 0, 0, 1, 1, 0.000000000000005692)"><g clip-path="url(#dc83724119)"><g clip-path="url(#5ee0fa6757)"><g fill="#ffffff" fill-opacity="1"><g transform="translate(-5.975828, 30.928387)"><g><path d="M 3.5 0 L 3.5 -23.9375 L 2.625 -28.359375 L 3.5 -30.984375 L 19.25 -30.984375 C 21.613281 -30.984375 23.640625 -30.601562 25.328125 -29.84375 C 27.023438 -29.082031 28.328125 -27.863281 29.234375 -26.1875 C 30.140625 -24.507812 30.59375 -22.300781 30.59375 -19.5625 C 30.59375 -17.019531 30.164062 -14.929688 29.3125 -13.296875 C 28.46875 -11.671875 27.234375 -10.429688 25.609375 -9.578125 L 26.34375 -8.96875 L 29.359375 -4.859375 L 31.859375 -2.625 L 31.859375 0 L 20.265625 0 L 15.453125 -8.015625 L 13.125 -8.015625 L 13.125 -7.046875 L 13.5625 -2.671875 L 13.125 0 Z M 13.125 -16.1875 L 15.671875 -16.1875 C 16.691406 -16.1875 17.570312 -16.226562 18.3125 -16.3125 C 19.0625 -16.40625 19.640625 -16.675781 20.046875 -17.125 C 20.453125 -17.582031 20.65625 -18.320312 20.65625 -19.34375 C 20.65625 -20.425781 20.4375 -21.195312 20 -21.65625 C 19.5625 -22.125 18.957031 -22.410156 18.1875 -22.515625 C 17.414062 -22.617188 16.519531 -22.671875 15.5 -22.671875 L 12.6875 -22.671875 Z M 13.125 -16.1875 "/></g></g></g></g></g></g></g><g clip-path="url(#e8f7fc4cfb)"><g clip-path="url(#52c1d285b3)"><g clip-path="url(#1dc5860996)"><path fill="#182028" d="M 21.890625 7.082031 C 21.773438 6.894531 21.554688 6.800781 21.335938 6.84375 L 13.871094 8.367188 L 16.878906 1.65625 C 16.960938 1.476562 16.933594 1.265625 16.8125 1.109375 C 16.691406 0.957031 16.496094 0.878906 16.300781 0.914062 L 7.078125 2.558594 C 6.863281 2.597656 6.695312 2.757812 6.652344 2.972656 L 4.046875 15.148438 C 4.007812 15.320312 4.058594 15.496094 4.179688 15.621094 C 4.296875 15.75 4.476562 15.8125 4.644531 15.785156 L 11.179688 14.773438 L 7.753906 24.773438 C 7.667969 25.023438 7.777344 25.292969 8.007812 25.417969 C 8.078125 25.453125 8.15625 25.476562 8.230469 25.480469 C 8.402344 25.488281 8.574219 25.414062 8.683594 25.265625 L 21.867188 7.683594 C 22 7.507812 22.007812 7.265625 21.890625 7.082031 Z M 21.890625 7.082031 " fill-opacity="1" fill-rule="nonzero"/></g></g></g><g clip-path="url(#a2a3ec71a8)"><g transform="matrix(1, 0, 0, 1, 27, 6)"><g clip-path="url(#4826a08b52)"><g clip-path="url(#ede95b12ab)"><g fill="#ffffff" fill-opacity="1"><g transform="translate(0.335799, 12.817626)"><g><path d="M 8.078125 -4.25 C 8.785156 -3.6875 9.140625 -2.804688 9.140625 -1.609375 L 9.140625 0 L 6.234375 0 L 6.234375 -2.03125 C 6.234375 -2.894531 5.828125 -3.398438 5.015625 -3.546875 L 3.828125 -3.546875 L 3.828125 0 L 0.65625 0 L 0.65625 -9.828125 L 5.84375 -9.828125 C 6.914062 -9.828125 7.742188 -9.554688 8.328125 -9.015625 C 8.910156 -8.472656 9.203125 -7.695312 9.203125 -6.6875 C 9.203125 -5.582031 8.828125 -4.769531 8.078125 -4.25 Z M 5.40625 -5.90625 C 6.039062 -5.90625 6.359375 -6.144531 6.359375 -6.625 C 6.359375 -7.125 6.039062 -7.375 5.40625 -7.375 L 3.828125 -7.375 L 3.828125 -5.90625 Z M 5.40625 -5.90625 "/></g></g></g></g><g fill="#ffffff" fill-opacity="1"><g transform="translate(10.069495, 12.817626)"><g><path d="M 9.03125 -3.9375 C 9.03125 -3.789062 9.015625 -3.640625 8.984375 -3.484375 C 8.960938 -3.328125 8.9375 -3.175781 8.90625 -3.03125 L 3.75 -3.03125 C 3.945312 -2.488281 4.289062 -2.21875 4.78125 -2.21875 C 5.15625 -2.21875 5.414062 -2.398438 5.5625 -2.765625 L 8.734375 -2.234375 C 8.441406 -1.472656 7.945312 -0.882812 7.25 -0.46875 C 6.5625 -0.0507812 5.722656 0.15625 4.734375 0.15625 C 3.367188 0.15625 2.316406 -0.195312 1.578125 -0.90625 C 0.835938 -1.625 0.46875 -2.632812 0.46875 -3.9375 C 0.46875 -5.25 0.835938 -6.253906 1.578125 -6.953125 C 2.316406 -7.660156 3.367188 -8.015625 4.734375 -8.015625 C 6.097656 -8.015625 7.15625 -7.660156 7.90625 -6.953125 C 8.65625 -6.253906 9.03125 -5.25 9.03125 -3.9375 Z M 5.75 -4.65625 C 5.476562 -5.320312 5.140625 -5.65625 4.734375 -5.65625 C 4.179688 -5.65625 3.828125 -5.320312 3.671875 -4.65625 Z M 5.75 -4.65625 "/></g></g></g><g fill="#ffffff" fill-opacity="1"><g transform="translate(19.547554, 12.817626)"><g><path d="M 8.96875 -2.9375 L 5.9375 -3.4375 C 5.789062 -2.757812 5.390625 -2.421875 4.734375 -2.421875 C 4.378906 -2.421875 4.101562 -2.550781 3.90625 -2.8125 C 3.71875 -3.070312 3.625 -3.445312 3.625 -3.9375 C 3.625 -4.4375 3.71875 -4.816406 3.90625 -5.078125 C 4.101562 -5.335938 4.378906 -5.46875 4.734375 -5.46875 C 5.390625 -5.46875 5.789062 -5.125 5.9375 -4.4375 L 8.96875 -4.953125 C 8.8125 -5.941406 8.367188 -6.695312 7.640625 -7.21875 C 6.910156 -7.75 5.941406 -8.015625 4.734375 -8.015625 C 3.367188 -8.015625 2.316406 -7.660156 1.578125 -6.953125 C 0.835938 -6.253906 0.46875 -5.25 0.46875 -3.9375 C 0.46875 -2.632812 0.835938 -1.625 1.578125 -0.90625 C 2.316406 -0.195312 3.367188 0.15625 4.734375 0.15625 C 5.929688 0.15625 6.894531 -0.109375 7.625 -0.640625 C 8.351562 -1.179688 8.800781 -1.945312 8.96875 -2.9375 Z M 8.96875 -2.9375 "/></g></g></g><g fill="#ffffff" fill-opacity="1"><g transform="translate(28.966619, 12.817626)"><g><path d="M 6.140625 -8.015625 C 7.117188 -8.015625 7.875 -7.703125 8.40625 -7.078125 C 8.9375 -6.460938 9.203125 -5.59375 9.203125 -4.46875 L 9.203125 0 L 6 0 L 6 -3.34375 C 6 -4 5.910156 -4.5 5.734375 -4.84375 C 5.566406 -5.195312 5.320312 -5.375 5 -5.375 C 4.4375 -5.375 4.046875 -4.878906 3.828125 -3.890625 L 3.828125 0 L 0.65625 0 L 0.65625 -9.828125 L 3.828125 -9.828125 L 3.828125 -6.625 C 4.304688 -7.53125 5.078125 -7.992188 6.140625 -8.015625 Z M 6.140625 -8.015625 "/></g></g></g><g fill="#ffffff" fill-opacity="1"><g transform="translate(38.680651, 12.817626)"><g><path d="M 9.03125 -7.859375 L 9.03125 0 L 5.828125 0 L 5.828125 -1.09375 C 5.347656 -0.257812 4.675781 0.15625 3.8125 0.15625 C 2.738281 0.15625 1.910156 -0.195312 1.328125 -0.90625 C 0.753906 -1.625 0.46875 -2.632812 0.46875 -3.9375 C 0.46875 -5.25 0.753906 -6.253906 1.328125 -6.953125 C 1.910156 -7.660156 2.738281 -8.015625 3.8125 -8.015625 C 4.6875 -8.015625 5.359375 -7.601562 5.828125 -6.78125 L 5.828125 -7.859375 Z M 4.734375 -2.421875 C 5.085938 -2.421875 5.359375 -2.550781 5.546875 -2.8125 C 5.734375 -3.070312 5.828125 -3.445312 5.828125 -3.9375 C 5.828125 -4.957031 5.460938 -5.46875 4.734375 -5.46875 C 3.992188 -5.46875 3.625 -4.957031 3.625 -3.9375 C 3.625 -3.445312 3.71875 -3.070312 3.90625 -2.8125 C 4.09375 -2.550781 4.367188 -2.421875 4.734375 -2.421875 Z M 4.734375 -2.421875 "/></g></g></g><g fill="#ffffff" fill-opacity="1"><g transform="translate(48.335689, 12.817626)"><g><path d="M 6.09375 -8.015625 C 6.601562 -8.015625 7.082031 -7.898438 7.53125 -7.671875 C 7.976562 -7.441406 8.332031 -7.082031 8.59375 -6.59375 L 6.40625 -4.5625 C 6.019531 -5.101562 5.535156 -5.375 4.953125 -5.375 C 4.679688 -5.375 4.445312 -5.191406 4.25 -4.828125 C 4.0625 -4.460938 3.921875 -3.941406 3.828125 -3.265625 L 3.828125 0 L 0.65625 0 L 0.65625 -7.859375 L 3.828125 -7.859375 L 3.828125 -6.625 C 4.285156 -7.53125 5.039062 -7.992188 6.09375 -8.015625 Z M 6.09375 -8.015625 "/></g></g></g><g clip-path="url(#14b01049cd)"><g fill="#ffffff" fill-opacity="1"><g transform="translate(57.086177, 12.817626)"><g><path d="M 9.03125 -7.859375 L 9.03125 -0.171875 C 9.03125 0.941406 8.675781 1.796875 7.96875 2.390625 C 7.257812 2.984375 6.242188 3.28125 4.921875 3.28125 C 3.554688 3.28125 2.488281 3.023438 1.71875 2.515625 C 0.945312 2.003906 0.550781 1.285156 0.53125 0.359375 L 3.40625 0.21875 C 3.425781 0.789062 3.878906 1.078125 4.765625 1.078125 C 5.484375 1.078125 5.84375 0.660156 5.84375 -0.171875 L 5.84375 -1.09375 C 5.601562 -0.6875 5.316406 -0.375 4.984375 -0.15625 C 4.648438 0.0507812 4.265625 0.15625 3.828125 0.15625 C 2.753906 0.15625 1.925781 -0.195312 1.34375 -0.90625 C 0.757812 -1.625 0.46875 -2.632812 0.46875 -3.9375 C 0.46875 -5.25 0.757812 -6.253906 1.34375 -6.953125 C 1.925781 -7.660156 2.753906 -8.015625 3.828125 -8.015625 C 4.679688 -8.015625 5.351562 -7.601562 5.84375 -6.78125 L 5.84375 -7.859375 Z M 4.765625 -2.421875 C 5.097656 -2.421875 5.359375 -2.550781 5.546875 -2.8125 C 5.742188 -3.070312 5.84375 -3.445312 5.84375 -3.9375 C 5.84375 -4.957031 5.484375 -5.46875 4.765625 -5.46875 C 4.003906 -5.46875 3.625 -4.957031 3.625 -3.9375 C 3.625 -3.445312 3.71875 -3.070312 3.90625 -2.8125 C 4.101562 -2.550781 4.390625 -2.421875 4.765625 -2.421875 Z M 4.765625 -2.421875 "/></g></g></g></g><g fill="#ffffff" fill-opacity="1"><g transform="translate(66.76088, 12.817626)"><g><path d="M 9.03125 -3.9375 C 9.03125 -3.789062 9.015625 -3.640625 8.984375 -3.484375 C 8.960938 -3.328125 8.9375 -3.175781 8.90625 -3.03125 L 3.75 -3.03125 C 3.945312 -2.488281 4.289062 -2.21875 4.78125 -2.21875 C 5.15625 -2.21875 5.414062 -2.398438 5.5625 -2.765625 L 8.734375 -2.234375 C 8.441406 -1.472656 7.945312 -0.882812 7.25 -0.46875 C 6.5625 -0.0507812 5.722656 0.15625 4.734375 0.15625 C 3.367188 0.15625 2.316406 -0.195312 1.578125 -0.90625 C 0.835938 -1.625 0.46875 -2.632812 0.46875 -3.9375 C 0.46875 -5.25 0.835938 -6.253906 1.578125 -6.953125 C 2.316406 -7.660156 3.367188 -8.015625 4.734375 -8.015625 C 6.097656 -8.015625 7.15625 -7.660156 7.90625 -6.953125 C 8.65625 -6.253906 9.03125 -5.25 9.03125 -3.9375 Z M 5.75 -4.65625 C 5.476562 -5.320312 5.140625 -5.65625 4.734375 -5.65625 C 4.179688 -5.65625 3.828125 -5.320312 3.671875 -4.65625 Z M 5.75 -4.65625 "/></g></g></g></g></g></g></svg>