<svg xmlns="http://www.w3.org/2000/svg" xmlns:xlink="http://www.w3.org/1999/xlink" width="140" zoomAndPan="magnify" viewBox="0 0 104.88 30.000001" height="40" preserveAspectRatio="xMidYMid meet" version="1.0"><defs><g/><clipPath id="f7e38e2e57"><path d="M 1.632812 3 L 10 3 L 10 24 L 1.632812 24 Z M 1.632812 3 " clip-rule="nonzero"/></clipPath><clipPath id="171889b7bc"><path d="M 93 4 L 103.128906 4 L 103.128906 24 L 93 24 Z M 93 4 " clip-rule="nonzero"/></clipPath></defs><g clip-path="url(#f7e38e2e57)"><g fill="#ffffff" fill-opacity="1"><g transform="translate(-5.327391, 23.630068)"><g><path d="M 7.25 -8.140625 C 5.132812 -8.421875 3.5625 -8.984375 2.53125 -9.828125 C 1.507812 -10.671875 1 -11.972656 1 -13.734375 L 1 -14.015625 C 1 -15.785156 1.585938 -17.191406 2.765625 -18.234375 C 3.953125 -19.285156 5.65625 -19.8125 7.875 -19.8125 C 10.269531 -19.8125 12.015625 -19.265625 13.109375 -18.171875 C 14.210938 -17.085938 14.765625 -15.398438 14.765625 -13.109375 L 14.765625 -12.59375 L 10.71875 -12.59375 C 10.71875 -13.875 10.503906 -14.8125 10.078125 -15.40625 C 9.648438 -16.007812 8.921875 -16.3125 7.890625 -16.3125 L 7.671875 -16.3125 C 6.859375 -16.3125 6.222656 -16.109375 5.765625 -15.703125 C 5.316406 -15.304688 5.09375 -14.796875 5.09375 -14.171875 L 5.09375 -14.046875 C 5.09375 -13.578125 5.179688 -13.175781 5.359375 -12.84375 C 5.535156 -12.507812 5.867188 -12.234375 6.359375 -12.015625 C 6.847656 -11.796875 7.566406 -11.625 8.515625 -11.5 C 10.648438 -11.207031 12.25 -10.644531 13.3125 -9.8125 C 14.382812 -8.976562 14.921875 -7.65625 14.921875 -5.84375 L 14.921875 -5.59375 C 14.921875 -3.726562 14.316406 -2.273438 13.109375 -1.234375 C 11.898438 -0.191406 10.15625 0.328125 7.875 0.328125 C 5.570312 0.328125 3.820312 -0.207031 2.625 -1.28125 C 1.4375 -2.351562 0.84375 -4.066406 0.84375 -6.421875 L 0.84375 -6.640625 L 4.890625 -6.640625 C 4.890625 -5.429688 5.132812 -4.550781 5.625 -4 C 6.125 -3.445312 6.835938 -3.171875 7.765625 -3.171875 L 8 -3.171875 C 8.925781 -3.171875 9.625 -3.390625 10.09375 -3.828125 C 10.5625 -4.273438 10.796875 -4.820312 10.796875 -5.46875 L 10.796875 -5.59375 C 10.796875 -6.0625 10.691406 -6.460938 10.484375 -6.796875 C 10.285156 -7.128906 9.929688 -7.40625 9.421875 -7.625 C 8.921875 -7.851562 8.195312 -8.023438 7.25 -8.140625 Z M 7.25 -8.140625 "/></g></g></g></g><g fill="#ffffff" fill-opacity="1"><g transform="translate(10.437292, 23.630068)"><g><path d="M 11.125 -19.484375 L 15.171875 -19.484375 L 15.171875 0 L 11.125 0 L 11.125 -8.1875 L 5.453125 -8.1875 L 5.453125 0 L 1.40625 0 L 1.40625 -19.484375 L 5.453125 -19.484375 L 5.453125 -11.6875 L 11.125 -11.6875 Z M 11.125 -19.484375 "/></g></g></g><g fill="#ffffff" fill-opacity="1"><g transform="translate(27.001452, 23.630068)"><g><path d="M 5.21875 -19.53125 L 10.796875 -19.53125 L 15.671875 0 L 11.34375 0 L 10.390625 -4.203125 L 5.625 -4.203125 L 4.703125 0 L 0.34375 0 Z M 8 -14.859375 L 6.390625 -7.6875 L 9.59375 -7.6875 Z M 8 -14.859375 "/></g></g></g><g fill="#ffffff" fill-opacity="1"><g transform="translate(43.015975, 23.630068)"><g><path d="M 15.671875 -19.484375 L 15.671875 0 L 11.390625 0 L 5.09375 -12.09375 L 5.21875 -8.171875 L 5.21875 0 L 1.40625 0 L 1.40625 -19.484375 L 5.671875 -19.484375 L 11.9375 -7.390625 L 11.8125 -11.3125 L 11.8125 -19.484375 Z M 15.671875 -19.484375 "/></g></g></g><g fill="#ffffff" fill-opacity="1"><g transform="translate(60.079813, 23.630068)"><g><path d="M 8.6875 0.328125 C 6.039062 0.328125 4.09375 -0.425781 2.84375 -1.9375 C 1.59375 -3.445312 0.96875 -5.882812 0.96875 -9.25 L 0.96875 -10.25 C 0.96875 -13.625 1.582031 -16.0625 2.8125 -17.5625 C 4.050781 -19.0625 5.925781 -19.8125 8.4375 -19.8125 C 10.769531 -19.8125 12.535156 -19.28125 13.734375 -18.21875 C 14.941406 -17.164062 15.546875 -15.421875 15.546875 -12.984375 L 15.546875 -12.09375 L 11.5 -12.09375 C 11.5 -13.425781 11.3125 -14.460938 10.9375 -15.203125 C 10.5625 -15.941406 9.804688 -16.3125 8.671875 -16.3125 L 8.4375 -16.3125 C 7.5625 -16.3125 6.875 -16.078125 6.375 -15.609375 C 5.882812 -15.148438 5.546875 -14.460938 5.359375 -13.546875 C 5.179688 -12.640625 5.09375 -11.539062 5.09375 -10.25 L 5.09375 -9.25 C 5.09375 -7.945312 5.1875 -6.84375 5.375 -5.9375 C 5.570312 -5.039062 5.921875 -4.351562 6.421875 -3.875 C 6.921875 -3.40625 7.644531 -3.171875 8.59375 -3.171875 L 8.8125 -3.171875 C 9.394531 -3.171875 9.90625 -3.238281 10.34375 -3.375 C 10.789062 -3.519531 11.164062 -3.703125 11.46875 -3.921875 L 11.46875 -7.046875 L 8.890625 -7.046875 L 8.890625 -10.546875 L 15.515625 -10.546875 L 15.515625 -1.953125 C 14.796875 -1.347656 13.90625 -0.816406 12.84375 -0.359375 C 11.78125 0.0976562 10.394531 0.328125 8.6875 0.328125 Z M 8.6875 0.328125 "/></g></g></g><g fill="#ffffff" fill-opacity="1"><g transform="translate(76.893813, 23.630068)"><g><path d="M 11.125 -19.484375 L 15.171875 -19.484375 L 15.171875 0 L 11.125 0 L 11.125 -8.1875 L 5.453125 -8.1875 L 5.453125 0 L 1.40625 0 L 1.40625 -19.484375 L 5.453125 -19.484375 L 5.453125 -11.6875 L 11.125 -11.6875 Z M 11.125 -19.484375 "/></g></g></g><g clip-path="url(#171889b7bc)"><g fill="#ffffff" fill-opacity="1"><g transform="translate(93.457973, 23.630068)"><g><path d="M 5.21875 -19.53125 L 10.796875 -19.53125 L 15.671875 0 L 11.34375 0 L 10.390625 -4.203125 L 5.625 -4.203125 L 4.703125 0 L 0.34375 0 Z M 8 -14.859375 L 6.390625 -7.6875 L 9.59375 -7.6875 Z M 8 -14.859375 "/></g></g></g></g></svg>