<svg xmlns="http://www.w3.org/2000/svg" xmlns:xlink="http://www.w3.org/1999/xlink" width="140" zoomAndPan="magnify" viewBox="0 0 104.88 30.000001" height="40" preserveAspectRatio="xMidYMid meet" version="1.0"><defs><g/><clipPath id="8fe3a47657"><path d="M 1.632812 0 L 29.285156 0 L 29.285156 29.03125 L 1.632812 29.03125 Z M 1.632812 0 " clip-rule="nonzero"/></clipPath><clipPath id="60b2a1e7e6"><path d="M 8.601562 -6.167969 C -2.824219 -6.167969 -12.085938 3.09375 -12.085938 14.515625 C -12.085938 25.941406 -2.824219 35.203125 8.601562 35.203125 C 20.027344 35.203125 29.285156 25.941406 29.285156 14.515625 C 29.285156 3.09375 20.027344 -6.167969 8.601562 -6.167969 Z M 8.601562 -6.167969 " clip-rule="nonzero"/></clipPath><clipPath id="ae2f9d18fc"><path d="M 0.632812 0 L 28.285156 0 L 28.285156 29.03125 L 0.632812 29.03125 Z M 0.632812 0 " clip-rule="nonzero"/></clipPath><clipPath id="b255c2c3e7"><path d="M 7.601562 -6.167969 C -3.824219 -6.167969 -13.085938 3.09375 -13.085938 14.515625 C -13.085938 25.941406 -3.824219 35.203125 7.601562 35.203125 C 19.027344 35.203125 28.285156 25.941406 28.285156 14.515625 C 28.285156 3.09375 19.027344 -6.167969 7.601562 -6.167969 Z M 7.601562 -6.167969 " clip-rule="nonzero"/></clipPath><clipPath id="10af68c1e6"><rect x="0" width="29" y="0" height="30"/></clipPath><clipPath id="3b036f65d1"><path d="M 15 2 L 22.246094 2 L 22.246094 27 L 15 27 Z M 15 2 " clip-rule="nonzero"/></clipPath><clipPath id="6546852a34"><path d="M 2.648438 12 L 8 12 L 8 17 L 2.648438 17 Z M 2.648438 12 " clip-rule="nonzero"/></clipPath><clipPath id="45c44c85dc"><path d="M 30 2 L 103.128906 2 L 103.128906 26 L 30 26 Z M 30 2 " clip-rule="nonzero"/></clipPath><clipPath id="706f1d5cac"><rect x="0" width="74" y="0" height="24"/></clipPath></defs><g clip-path="url(#8fe3a47657)"><g clip-path="url(#60b2a1e7e6)"><g transform="matrix(1, 0, 0, 1, 1, 0.000000000000005692)"><g clip-path="url(#10af68c1e6)"><g clip-path="url(#ae2f9d18fc)"><g clip-path="url(#b255c2c3e7)"><path fill="#ffffff" d="M -13.085938 -6.167969 L 28.285156 -6.167969 L 28.285156 35.203125 L -13.085938 35.203125 Z M -13.085938 -6.167969 " fill-opacity="1" fill-rule="nonzero"/></g></g></g></g></g></g><g clip-path="url(#3b036f65d1)"><path fill="#182028" d="M 22.246094 14.511719 C 22.25 12.253906 21.820312 10.082031 20.957031 7.996094 C 20.09375 5.914062 18.863281 4.074219 17.261719 2.484375 C 17.148438 2.367188 17.015625 2.28125 16.867188 2.21875 C 16.71875 2.15625 16.5625 2.125 16.402344 2.125 C 16.242188 2.125 16.085938 2.15625 15.9375 2.21875 C 15.789062 2.28125 15.65625 2.367188 15.542969 2.484375 C 15.429688 2.597656 15.339844 2.726562 15.28125 2.878906 C 15.21875 3.027344 15.1875 3.179688 15.1875 3.34375 C 15.1875 3.503906 15.21875 3.660156 15.28125 3.808594 C 15.339844 3.957031 15.429688 4.089844 15.542969 4.203125 C 16.21875 4.878906 16.824219 5.617188 17.355469 6.410156 C 17.886719 7.207031 18.335938 8.046875 18.699219 8.933594 C 19.066406 9.816406 19.34375 10.726562 19.53125 11.667969 C 19.714844 12.605469 19.808594 13.554688 19.808594 14.511719 C 19.808594 15.46875 19.714844 16.414062 19.53125 17.355469 C 19.34375 18.292969 19.066406 19.203125 18.699219 20.089844 C 18.335938 20.972656 17.886719 21.8125 17.355469 22.609375 C 16.824219 23.40625 16.21875 24.140625 15.542969 24.820312 C 15.429688 24.933594 15.339844 25.0625 15.28125 25.214844 C 15.21875 25.363281 15.1875 25.515625 15.1875 25.679688 C 15.1875 25.839844 15.21875 25.996094 15.28125 26.144531 C 15.339844 26.292969 15.429688 26.425781 15.542969 26.539062 C 15.65625 26.652344 15.789062 26.738281 15.9375 26.800781 C 16.085938 26.863281 16.242188 26.894531 16.402344 26.894531 C 16.5625 26.894531 16.71875 26.863281 16.867188 26.800781 C 17.015625 26.738281 17.148438 26.652344 17.261719 26.539062 C 18.863281 24.945312 20.09375 23.109375 20.957031 21.023438 C 21.820312 18.9375 22.25 16.765625 22.246094 14.511719 Z M 22.246094 14.511719 " fill-opacity="1" fill-rule="nonzero"/></g><path fill="#182028" d="M 17.382812 14.511719 C 17.390625 12.902344 17.085938 11.351562 16.472656 9.863281 C 15.859375 8.375 14.984375 7.058594 13.847656 5.921875 C 13.730469 5.816406 13.597656 5.734375 13.453125 5.679688 C 13.308594 5.625 13.15625 5.601562 13 5.601562 C 12.84375 5.605469 12.691406 5.640625 12.550781 5.699219 C 12.40625 5.761719 12.277344 5.847656 12.167969 5.957031 C 12.054688 6.070312 11.96875 6.195312 11.910156 6.339844 C 11.847656 6.484375 11.8125 6.632812 11.808594 6.789062 C 11.804688 6.945312 11.832031 7.097656 11.886719 7.242188 C 11.941406 7.390625 12.019531 7.519531 12.125 7.636719 C 12.578125 8.089844 12.980469 8.578125 13.335938 9.109375 C 13.6875 9.640625 13.988281 10.203125 14.230469 10.789062 C 14.476562 11.378906 14.660156 11.988281 14.785156 12.613281 C 14.910156 13.238281 14.972656 13.871094 14.972656 14.511719 C 14.972656 15.148438 14.910156 15.78125 14.785156 16.40625 C 14.660156 17.03125 14.476562 17.640625 14.230469 18.230469 C 13.988281 18.820312 13.6875 19.378906 13.335938 19.910156 C 12.980469 20.441406 12.578125 20.933594 12.125 21.382812 C 12.011719 21.496094 11.925781 21.628906 11.863281 21.777344 C 11.804688 21.925781 11.773438 22.082031 11.773438 22.242188 C 11.773438 22.402344 11.804688 22.558594 11.863281 22.707031 C 11.925781 22.855469 12.011719 22.984375 12.125 23.097656 C 12.238281 23.214844 12.371094 23.300781 12.519531 23.363281 C 12.667969 23.425781 12.824219 23.457031 12.984375 23.457031 C 13.148438 23.457031 13.304688 23.425781 13.453125 23.363281 C 13.601562 23.300781 13.730469 23.214844 13.847656 23.097656 C 14.984375 21.960938 15.859375 20.648438 16.472656 19.160156 C 17.085938 17.667969 17.390625 16.121094 17.382812 14.511719 Z M 17.382812 14.511719 " fill-opacity="1" fill-rule="nonzero"/><path fill="#182028" d="M 10.390625 9.355469 C 10.277344 9.234375 10.144531 9.136719 9.996094 9.070312 C 9.84375 9 9.683594 8.964844 9.519531 8.960938 C 9.351562 8.957031 9.191406 8.988281 9.039062 9.050781 C 8.882812 9.109375 8.75 9.199219 8.632812 9.320312 C 8.515625 9.4375 8.425781 9.570312 8.363281 9.726562 C 8.300781 9.878906 8.273438 10.039062 8.277344 10.207031 C 8.28125 10.371094 8.316406 10.53125 8.386719 10.683594 C 8.457031 10.832031 8.550781 10.964844 8.675781 11.074219 C 8.898438 11.300781 9.101562 11.546875 9.277344 11.8125 C 9.453125 12.078125 9.605469 12.359375 9.726562 12.652344 C 9.847656 12.945312 9.9375 13.25 10 13.5625 C 10.0625 13.875 10.09375 14.191406 10.09375 14.511719 C 10.09375 14.828125 10.0625 15.144531 10 15.457031 C 9.9375 15.769531 9.847656 16.074219 9.726562 16.367188 C 9.605469 16.664062 9.453125 16.945312 9.277344 17.207031 C 9.101562 17.472656 8.898438 17.71875 8.675781 17.945312 C 8.550781 18.058594 8.457031 18.1875 8.386719 18.339844 C 8.316406 18.492188 8.28125 18.648438 8.277344 18.816406 C 8.273438 18.980469 8.300781 19.140625 8.363281 19.296875 C 8.425781 19.449219 8.515625 19.585938 8.632812 19.703125 C 8.75 19.820312 8.882812 19.910156 9.039062 19.972656 C 9.191406 20.035156 9.351562 20.0625 9.519531 20.058594 C 9.683594 20.054688 9.84375 20.019531 9.996094 19.953125 C 10.144531 19.882812 10.277344 19.785156 10.390625 19.664062 C 10.726562 19.324219 11.027344 18.957031 11.292969 18.558594 C 11.558594 18.160156 11.785156 17.742188 11.964844 17.300781 C 12.148438 16.855469 12.289062 16.402344 12.378906 15.933594 C 12.472656 15.460938 12.519531 14.988281 12.519531 14.511719 C 12.519531 14.03125 12.472656 13.558594 12.378906 13.089844 C 12.289062 12.621094 12.148438 12.164062 11.964844 11.722656 C 11.785156 11.28125 11.558594 10.859375 11.292969 10.460938 C 11.027344 10.0625 10.726562 9.695312 10.390625 9.355469 Z M 10.390625 9.355469 " fill-opacity="1" fill-rule="nonzero"/><g clip-path="url(#6546852a34)"><path fill="#182028" d="M 5.234375 16.949219 C 4.910156 16.949219 4.601562 16.886719 4.300781 16.765625 C 4.003906 16.640625 3.738281 16.464844 3.507812 16.234375 C 3.28125 16.007812 3.105469 15.742188 2.980469 15.445312 C 2.855469 15.144531 2.796875 14.835938 2.796875 14.511719 C 2.796875 14.1875 2.855469 13.875 2.980469 13.578125 C 3.105469 13.277344 3.28125 13.015625 3.507812 12.785156 C 3.738281 12.554688 4.003906 12.378906 4.300781 12.257812 C 4.601562 12.132812 4.910156 12.070312 5.234375 12.070312 C 5.558594 12.070312 5.871094 12.132812 6.167969 12.257812 C 6.46875 12.378906 6.730469 12.554688 6.960938 12.785156 C 7.1875 13.015625 7.367188 13.277344 7.488281 13.578125 C 7.613281 13.875 7.675781 14.1875 7.675781 14.511719 C 7.675781 14.835938 7.613281 15.144531 7.488281 15.445312 C 7.367188 15.742188 7.1875 16.007812 6.960938 16.234375 C 6.730469 16.464844 6.46875 16.640625 6.167969 16.765625 C 5.871094 16.886719 5.558594 16.949219 5.234375 16.949219 Z M 5.234375 16.949219 " fill-opacity="1" fill-rule="nonzero"/></g><g clip-path="url(#45c44c85dc)"><g transform="matrix(1, 0, 0, 1, 30, 2)"><g clip-path="url(#706f1d5cac)"><g fill="#ffffff" fill-opacity="1"><g transform="translate(0.65222, 17.335665)"><g><path d="M 0.65625 -4.25 C 0.65625 -5.113281 0.832031 -5.875 1.1875 -6.53125 C 1.539062 -7.1875 2.019531 -7.691406 2.625 -8.046875 C 3.238281 -8.410156 3.925781 -8.59375 4.6875 -8.59375 C 5.34375 -8.59375 5.953125 -8.441406 6.515625 -8.140625 C 7.085938 -7.835938 7.519531 -7.4375 7.8125 -6.9375 L 7.8125 -11.40625 L 9.234375 -11.40625 L 9.234375 0 L 7.8125 0 L 7.8125 -1.59375 C 7.539062 -1.082031 7.128906 -0.664062 6.578125 -0.34375 C 6.035156 -0.0195312 5.398438 0.140625 4.671875 0.140625 C 3.921875 0.140625 3.238281 -0.0390625 2.625 -0.40625 C 2.019531 -0.78125 1.539062 -1.300781 1.1875 -1.96875 C 0.832031 -2.632812 0.65625 -3.394531 0.65625 -4.25 Z M 7.8125 -4.234375 C 7.8125 -4.878906 7.679688 -5.4375 7.421875 -5.90625 C 7.171875 -6.375 6.828125 -6.734375 6.390625 -6.984375 C 5.953125 -7.242188 5.472656 -7.375 4.953125 -7.375 C 4.421875 -7.375 3.941406 -7.25 3.515625 -7 C 3.085938 -6.75 2.742188 -6.390625 2.484375 -5.921875 C 2.222656 -5.453125 2.09375 -4.894531 2.09375 -4.25 C 2.09375 -3.601562 2.222656 -3.039062 2.484375 -2.5625 C 2.742188 -2.082031 3.085938 -1.71875 3.515625 -1.46875 C 3.941406 -1.21875 4.421875 -1.09375 4.953125 -1.09375 C 5.472656 -1.09375 5.953125 -1.21875 6.390625 -1.46875 C 6.828125 -1.71875 7.171875 -2.082031 7.421875 -2.5625 C 7.679688 -3.039062 7.8125 -3.597656 7.8125 -4.234375 Z M 7.8125 -4.234375 "/></g></g></g><g fill="#ffffff" fill-opacity="1"><g transform="translate(11.07786, 17.335665)"><g><path d="M 8.890625 -4.546875 C 8.890625 -4.285156 8.878906 -4.003906 8.859375 -3.703125 L 2.09375 -3.703125 C 2.144531 -2.867188 2.429688 -2.21875 2.953125 -1.75 C 3.472656 -1.28125 4.101562 -1.046875 4.84375 -1.046875 C 5.445312 -1.046875 5.953125 -1.1875 6.359375 -1.46875 C 6.765625 -1.75 7.050781 -2.128906 7.21875 -2.609375 L 8.734375 -2.609375 C 8.503906 -1.796875 8.050781 -1.132812 7.375 -0.625 C 6.695312 -0.113281 5.851562 0.140625 4.84375 0.140625 C 4.039062 0.140625 3.320312 -0.0351562 2.6875 -0.390625 C 2.0625 -0.753906 1.566406 -1.269531 1.203125 -1.9375 C 0.835938 -2.601562 0.65625 -3.367188 0.65625 -4.234375 C 0.65625 -5.109375 0.832031 -5.875 1.1875 -6.53125 C 1.539062 -7.195312 2.03125 -7.707031 2.65625 -8.0625 C 3.289062 -8.414062 4.019531 -8.59375 4.84375 -8.59375 C 5.644531 -8.59375 6.351562 -8.414062 6.96875 -8.0625 C 7.582031 -7.71875 8.054688 -7.238281 8.390625 -6.625 C 8.722656 -6.007812 8.890625 -5.316406 8.890625 -4.546875 Z M 7.453125 -4.84375 C 7.453125 -5.375 7.332031 -5.832031 7.09375 -6.21875 C 6.851562 -6.601562 6.53125 -6.894531 6.125 -7.09375 C 5.71875 -7.300781 5.269531 -7.40625 4.78125 -7.40625 C 4.070312 -7.40625 3.46875 -7.175781 2.96875 -6.71875 C 2.46875 -6.269531 2.179688 -5.644531 2.109375 -4.84375 Z M 7.453125 -4.84375 "/></g></g></g><g fill="#ffffff" fill-opacity="1"><g transform="translate(20.639828, 17.335665)"><g><path d="M 2.59375 -11.40625 L 2.59375 0 L 1.1875 0 L 1.1875 -11.40625 Z M 2.59375 -11.40625 "/></g></g></g><g fill="#ffffff" fill-opacity="1"><g transform="translate(24.433769, 17.335665)"><g><path d="M 0.65625 -4.25 C 0.65625 -5.113281 0.832031 -5.875 1.1875 -6.53125 C 1.539062 -7.1875 2.019531 -7.691406 2.625 -8.046875 C 3.238281 -8.410156 3.921875 -8.59375 4.671875 -8.59375 C 5.410156 -8.59375 6.050781 -8.429688 6.59375 -8.109375 C 7.144531 -7.796875 7.550781 -7.394531 7.8125 -6.90625 L 7.8125 -8.453125 L 9.234375 -8.453125 L 9.234375 0 L 7.8125 0 L 7.8125 -1.578125 C 7.539062 -1.078125 7.128906 -0.664062 6.578125 -0.34375 C 6.023438 -0.0195312 5.382812 0.140625 4.65625 0.140625 C 3.90625 0.140625 3.226562 -0.0390625 2.625 -0.40625 C 2.019531 -0.78125 1.539062 -1.300781 1.1875 -1.96875 C 0.832031 -2.632812 0.65625 -3.394531 0.65625 -4.25 Z M 7.8125 -4.234375 C 7.8125 -4.878906 7.679688 -5.4375 7.421875 -5.90625 C 7.171875 -6.375 6.828125 -6.734375 6.390625 -6.984375 C 5.953125 -7.242188 5.472656 -7.375 4.953125 -7.375 C 4.421875 -7.375 3.941406 -7.25 3.515625 -7 C 3.085938 -6.75 2.742188 -6.390625 2.484375 -5.921875 C 2.222656 -5.453125 2.09375 -4.894531 2.09375 -4.25 C 2.09375 -3.601562 2.222656 -3.039062 2.484375 -2.5625 C 2.742188 -2.082031 3.085938 -1.71875 3.515625 -1.46875 C 3.941406 -1.21875 4.421875 -1.09375 4.953125 -1.09375 C 5.472656 -1.09375 5.953125 -1.21875 6.390625 -1.46875 C 6.828125 -1.71875 7.171875 -2.082031 7.421875 -2.5625 C 7.679688 -3.039062 7.8125 -3.597656 7.8125 -4.234375 Z M 7.8125 -4.234375 "/></g></g></g><g fill="#ffffff" fill-opacity="1"><g transform="translate(34.859408, 17.335665)"><g><path d="M 12.453125 -8.453125 L 9.8125 0 L 8.359375 0 L 6.328125 -6.703125 L 4.28125 0 L 2.84375 0 L 0.1875 -8.453125 L 1.625 -8.453125 L 3.5625 -1.359375 L 5.65625 -8.453125 L 7.09375 -8.453125 L 9.140625 -1.34375 L 11.0625 -8.453125 Z M 12.453125 -8.453125 "/></g></g></g><g fill="#ffffff" fill-opacity="1"><g transform="translate(47.50589, 17.335665)"><g><path d="M 0.65625 -4.25 C 0.65625 -5.113281 0.832031 -5.875 1.1875 -6.53125 C 1.539062 -7.1875 2.019531 -7.691406 2.625 -8.046875 C 3.238281 -8.410156 3.921875 -8.59375 4.671875 -8.59375 C 5.410156 -8.59375 6.050781 -8.429688 6.59375 -8.109375 C 7.144531 -7.796875 7.550781 -7.394531 7.8125 -6.90625 L 7.8125 -8.453125 L 9.234375 -8.453125 L 9.234375 0 L 7.8125 0 L 7.8125 -1.578125 C 7.539062 -1.078125 7.128906 -0.664062 6.578125 -0.34375 C 6.023438 -0.0195312 5.382812 0.140625 4.65625 0.140625 C 3.90625 0.140625 3.226562 -0.0390625 2.625 -0.40625 C 2.019531 -0.78125 1.539062 -1.300781 1.1875 -1.96875 C 0.832031 -2.632812 0.65625 -3.394531 0.65625 -4.25 Z M 7.8125 -4.234375 C 7.8125 -4.878906 7.679688 -5.4375 7.421875 -5.90625 C 7.171875 -6.375 6.828125 -6.734375 6.390625 -6.984375 C 5.953125 -7.242188 5.472656 -7.375 4.953125 -7.375 C 4.421875 -7.375 3.941406 -7.25 3.515625 -7 C 3.085938 -6.75 2.742188 -6.390625 2.484375 -5.921875 C 2.222656 -5.453125 2.09375 -4.894531 2.09375 -4.25 C 2.09375 -3.601562 2.222656 -3.039062 2.484375 -2.5625 C 2.742188 -2.082031 3.085938 -1.71875 3.515625 -1.46875 C 3.941406 -1.21875 4.421875 -1.09375 4.953125 -1.09375 C 5.472656 -1.09375 5.953125 -1.21875 6.390625 -1.46875 C 6.828125 -1.71875 7.171875 -2.082031 7.421875 -2.5625 C 7.679688 -3.039062 7.8125 -3.597656 7.8125 -4.234375 Z M 7.8125 -4.234375 "/></g></g></g><g fill="#ffffff" fill-opacity="1"><g transform="translate(57.931529, 17.335665)"><g><path d="M 2.59375 -7.078125 C 2.84375 -7.554688 3.191406 -7.929688 3.640625 -8.203125 C 4.097656 -8.472656 4.660156 -8.609375 5.328125 -8.609375 L 5.328125 -7.15625 L 4.953125 -7.15625 C 3.378906 -7.15625 2.59375 -6.300781 2.59375 -4.59375 L 2.59375 0 L 1.1875 0 L 1.1875 -8.453125 L 2.59375 -8.453125 Z M 2.59375 -7.078125 "/></g></g></g><g fill="#ffffff" fill-opacity="1"><g transform="translate(63.684141, 17.335665)"><g><path d="M 8.890625 -4.546875 C 8.890625 -4.285156 8.878906 -4.003906 8.859375 -3.703125 L 2.09375 -3.703125 C 2.144531 -2.867188 2.429688 -2.21875 2.953125 -1.75 C 3.472656 -1.28125 4.101562 -1.046875 4.84375 -1.046875 C 5.445312 -1.046875 5.953125 -1.1875 6.359375 -1.46875 C 6.765625 -1.75 7.050781 -2.128906 7.21875 -2.609375 L 8.734375 -2.609375 C 8.503906 -1.796875 8.050781 -1.132812 7.375 -0.625 C 6.695312 -0.113281 5.851562 0.140625 4.84375 0.140625 C 4.039062 0.140625 3.320312 -0.0351562 2.6875 -0.390625 C 2.0625 -0.753906 1.566406 -1.269531 1.203125 -1.9375 C 0.835938 -2.601562 0.65625 -3.367188 0.65625 -4.234375 C 0.65625 -5.109375 0.832031 -5.875 1.1875 -6.53125 C 1.539062 -7.195312 2.03125 -7.707031 2.65625 -8.0625 C 3.289062 -8.414062 4.019531 -8.59375 4.84375 -8.59375 C 5.644531 -8.59375 6.351562 -8.414062 6.96875 -8.0625 C 7.582031 -7.71875 8.054688 -7.238281 8.390625 -6.625 C 8.722656 -6.007812 8.890625 -5.316406 8.890625 -4.546875 Z M 7.453125 -4.84375 C 7.453125 -5.375 7.332031 -5.832031 7.09375 -6.21875 C 6.851562 -6.601562 6.53125 -6.894531 6.125 -7.09375 C 5.71875 -7.300781 5.269531 -7.40625 4.78125 -7.40625 C 4.070312 -7.40625 3.46875 -7.175781 2.96875 -6.71875 C 2.46875 -6.269531 2.179688 -5.644531 2.109375 -4.84375 Z M 7.453125 -4.84375 "/></g></g></g></g></g></g></svg>