<svg xmlns="http://www.w3.org/2000/svg" xmlns:xlink="http://www.w3.org/1999/xlink" width="140" zoomAndPan="magnify" viewBox="0 0 104.88 30.000001" height="40" preserveAspectRatio="xMidYMid meet" version="1.0"><defs><g/><clipPath id="5386e7e81d"><path d="M 15 0.792969 L 18 0.792969 L 18 28.375 L 15 28.375 Z M 15 0.792969 " clip-rule="nonzero"/></clipPath><clipPath id="f44aec4268"><path d="M 3.304688 12 L 29.433594 12 L 29.433594 17 L 3.304688 17 Z M 3.304688 12 " clip-rule="nonzero"/></clipPath><clipPath id="eea5209672"><path d="M 32 3 L 103.128906 3 L 103.128906 26 L 32 26 Z M 32 3 " clip-rule="nonzero"/></clipPath><clipPath id="a0a01b0116"><rect x="0" width="72" y="0" height="23"/></clipPath></defs><g clip-path="url(#5386e7e81d)"><path fill="#ffffff" d="M 15.144531 2.230469 C 15.125 2.289062 15.113281 2.355469 15.109375 2.417969 C 15.113281 2.355469 15.125 2.292969 15.144531 2.230469 Z M 15.109375 2.433594 Z M 15.953125 0.796875 C 15.492188 0.796875 15.117188 1.171875 15.113281 1.632812 C 15.113281 2.101562 15.113281 2.363281 15.109375 2.429688 C 15.109375 2.433594 15.109375 2.4375 15.109375 2.441406 C 15.074219 3.566406 15.054688 4.359375 15.050781 4.820312 C 15.03125 6.457031 15.023438 7.550781 15.027344 8.105469 C 15.03125 10.019531 15.066406 12.230469 15.144531 14.738281 C 15.144531 15.175781 15.210938 16.78125 15.339844 19.566406 C 15.339844 19.570312 15.339844 19.578125 15.339844 19.585938 C 15.546875 22.585938 15.671875 24.480469 15.710938 25.269531 C 15.761719 26.34375 15.785156 27.042969 15.777344 27.375 C 15.765625 27.835938 16.132812 28.21875 16.597656 28.230469 C 16.601562 28.230469 16.609375 28.230469 16.617188 28.230469 C 17.070312 28.230469 17.441406 27.867188 17.453125 27.414062 C 17.460938 27.042969 17.441406 26.300781 17.386719 25.1875 C 17.386719 25.183594 17.386719 25.183594 17.386719 25.183594 C 17.34375 24.386719 17.222656 22.488281 17.015625 19.484375 C 16.882812 16.691406 16.820312 15.105469 16.820312 14.722656 C 16.820312 14.714844 16.820312 14.707031 16.820312 14.699219 C 16.746094 12.199219 16.707031 10 16.703125 8.097656 C 16.703125 8.097656 16.703125 8.09375 16.703125 8.09375 C 16.699219 7.550781 16.707031 6.464844 16.726562 4.835938 C 16.726562 4.835938 16.726562 4.835938 16.726562 4.832031 C 16.730469 4.386719 16.75 3.613281 16.785156 2.511719 C 16.785156 2.5 16.785156 2.492188 16.785156 2.480469 C 16.789062 2.414062 16.789062 2.132812 16.789062 1.636719 C 16.792969 1.175781 16.417969 0.796875 15.953125 0.796875 Z M 15.953125 0.796875 " fill-opacity="1" fill-rule="nonzero"/></g><g clip-path="url(#f44aec4268)"><path fill="#ffffff" d="M 4.699219 15.976562 C 4.683594 15.988281 4.664062 15.996094 4.648438 16.007812 C 4.664062 15.996094 4.683594 15.988281 4.699219 15.976562 Z M 28.304688 12.128906 C 28.261719 12.128906 28.21875 12.132812 28.171875 12.140625 L 17.816406 13.78125 C 16.625 13.953125 15.007812 14.144531 12.96875 14.347656 C 12.007812 14.4375 11.109375 14.480469 10.269531 14.480469 C 10.269531 14.480469 10.265625 14.480469 10.265625 14.480469 C 10.003906 14.484375 9.742188 14.484375 9.488281 14.484375 C 7.898438 14.484375 6.410156 14.441406 5.027344 14.347656 C 5.007812 14.347656 4.988281 14.347656 4.972656 14.347656 C 4.96875 14.347656 4.964844 14.347656 4.960938 14.347656 C 4.621094 14.351562 4.367188 14.371094 4.195312 14.40625 C 4.046875 14.4375 3.917969 14.488281 3.808594 14.554688 C 3.417969 14.804688 3.304688 15.320312 3.550781 15.710938 C 3.710938 15.964844 3.984375 16.101562 4.261719 16.101562 C 4.363281 16.101562 4.46875 16.082031 4.566406 16.042969 C 4.640625 16.035156 4.769531 16.027344 4.949219 16.023438 C 6.359375 16.117188 7.871094 16.160156 9.488281 16.160156 C 9.746094 16.160156 10.011719 16.160156 10.277344 16.15625 C 11.164062 16.15625 12.113281 16.109375 13.125 16.015625 C 13.128906 16.015625 13.128906 16.015625 13.132812 16.015625 C 15.203125 15.808594 16.847656 15.617188 18.066406 15.4375 C 18.070312 15.4375 18.074219 15.4375 18.078125 15.4375 L 28.4375 13.792969 C 28.894531 13.722656 29.207031 13.292969 29.132812 12.835938 C 29.066406 12.421875 28.710938 12.128906 28.304688 12.128906 Z M 28.304688 12.128906 " fill-opacity="1" fill-rule="nonzero"/></g><path fill="#ffffff" d="M 20.023438 8.929688 C 19.773438 8.929688 19.523438 9.042969 19.355469 9.257812 L 10.164062 21.292969 C 9.882812 21.660156 9.953125 22.1875 10.320312 22.464844 C 10.472656 22.582031 10.652344 22.640625 10.828125 22.640625 C 11.082031 22.640625 11.328125 22.527344 11.496094 22.308594 L 20.6875 10.277344 C 20.96875 9.90625 20.898438 9.382812 20.53125 9.101562 C 20.378906 8.984375 20.203125 8.929688 20.023438 8.929688 Z M 20.023438 8.929688 " fill-opacity="1" fill-rule="nonzero"/><path fill="#ffffff" d="M 11.023438 9.199219 C 10.886719 9.199219 10.75 9.230469 10.621094 9.300781 C 10.214844 9.523438 10.066406 10.035156 10.289062 10.4375 C 10.769531 11.324219 11.613281 12.332031 12.816406 13.46875 C 12.828125 13.476562 12.835938 13.484375 12.84375 13.492188 L 22.3125 21.652344 C 22.472656 21.789062 22.664062 21.855469 22.859375 21.855469 C 23.09375 21.855469 23.328125 21.757812 23.496094 21.566406 C 23.796875 21.214844 23.757812 20.6875 23.40625 20.382812 L 13.953125 12.234375 C 12.886719 11.226562 12.15625 10.359375 11.757812 9.636719 C 11.605469 9.355469 11.320312 9.199219 11.023438 9.199219 Z M 11.023438 9.199219 " fill-opacity="1" fill-rule="nonzero"/><g clip-path="url(#eea5209672)"><g transform="matrix(1, 0, 0, 1, 32, 3)"><g clip-path="url(#a0a01b0116)"><g fill="#ffffff" fill-opacity="1"><g transform="translate(0.109603, 17.049919)"><g><path d="M 1.515625 0 L 1.515625 -11.640625 L 3.078125 -11.640625 L 3.078125 -6.75 L 9.4375 -6.75 L 9.4375 -11.640625 L 10.984375 -11.640625 L 10.984375 0 L 9.4375 0 L 9.4375 -5.40625 L 3.078125 -5.40625 L 3.078125 0 Z M 1.515625 0 "/></g></g><g transform="translate(12.629798, 17.049919)"><g><path d="M 3.5625 0.15625 C 3.070312 0.15625 2.628906 0.0664062 2.234375 -0.109375 C 1.835938 -0.296875 1.519531 -0.570312 1.28125 -0.9375 C 1.039062 -1.300781 0.921875 -1.742188 0.921875 -2.265625 C 0.921875 -3.023438 1.15625 -3.597656 1.625 -3.984375 C 2.09375 -4.378906 2.757812 -4.644531 3.625 -4.78125 C 4.488281 -4.925781 5.503906 -5.003906 6.671875 -5.015625 L 6.671875 -5.609375 C 6.671875 -6.328125 6.488281 -6.820312 6.125 -7.09375 C 5.769531 -7.363281 5.316406 -7.5 4.765625 -7.5 C 4.191406 -7.5 3.703125 -7.347656 3.296875 -7.046875 C 2.898438 -6.753906 2.703125 -6.289062 2.703125 -5.65625 L 1.3125 -5.65625 C 1.3125 -6.351562 1.457031 -6.914062 1.75 -7.34375 C 2.050781 -7.769531 2.460938 -8.078125 2.984375 -8.265625 C 3.503906 -8.460938 4.097656 -8.5625 4.765625 -8.5625 C 5.203125 -8.5625 5.617188 -8.519531 6.015625 -8.4375 C 6.410156 -8.363281 6.765625 -8.21875 7.078125 -8 C 7.390625 -7.789062 7.632812 -7.492188 7.8125 -7.109375 C 8 -6.722656 8.09375 -6.226562 8.09375 -5.625 L 8.09375 0 L 6.75 0 L 6.6875 -1.28125 C 6.300781 -0.84375 5.851562 -0.492188 5.34375 -0.234375 C 4.832031 0.0234375 4.238281 0.15625 3.5625 0.15625 Z M 3.9375 -0.953125 C 4.519531 -0.953125 5.039062 -1.085938 5.5 -1.359375 C 5.957031 -1.628906 6.34375 -1.972656 6.65625 -2.390625 L 6.65625 -4.09375 C 5.125 -4.082031 4.023438 -3.941406 3.359375 -3.671875 C 2.691406 -3.398438 2.359375 -2.953125 2.359375 -2.328125 C 2.359375 -1.910156 2.488281 -1.578125 2.75 -1.328125 C 3.019531 -1.078125 3.414062 -0.953125 3.9375 -0.953125 Z M 3.9375 -0.953125 "/></g></g><g transform="translate(22.037238, 17.049919)"><g><path d="M 1.390625 0 L 1.390625 -8.421875 L 2.78125 -8.421875 L 2.828125 -7.125 C 3.078125 -7.457031 3.441406 -7.773438 3.921875 -8.078125 C 4.398438 -8.390625 4.992188 -8.546875 5.703125 -8.546875 C 6.640625 -8.546875 7.3125 -8.269531 7.71875 -7.71875 C 8.125 -7.164062 8.328125 -6.398438 8.328125 -5.421875 L 8.328125 0 L 6.875 0 L 6.875 -5.21875 C 6.875 -5.625 6.832031 -5.984375 6.75 -6.296875 C 6.664062 -6.617188 6.507812 -6.867188 6.28125 -7.046875 C 6.0625 -7.234375 5.742188 -7.328125 5.328125 -7.328125 C 4.734375 -7.328125 4.226562 -7.179688 3.8125 -6.890625 C 3.40625 -6.609375 3.078125 -6.300781 2.828125 -5.96875 L 2.828125 0 Z M 12.359375 0 L 12.359375 -5.21875 C 12.359375 -5.625 12.316406 -5.984375 12.234375 -6.296875 C 12.148438 -6.617188 11.992188 -6.867188 11.765625 -7.046875 C 11.535156 -7.234375 11.21875 -7.328125 10.8125 -7.328125 C 10.207031 -7.328125 9.695312 -7.1875 9.28125 -6.90625 C 8.875 -6.625 8.539062 -6.316406 8.28125 -5.984375 L 8.0625 -7.03125 C 8.394531 -7.40625 8.816406 -7.75 9.328125 -8.0625 C 9.835938 -8.382812 10.453125 -8.546875 11.171875 -8.546875 C 12.097656 -8.546875 12.765625 -8.269531 13.171875 -7.71875 C 13.585938 -7.164062 13.796875 -6.398438 13.796875 -5.421875 L 13.796875 0 Z M 12.359375 0 "/></g></g><g transform="translate(37.142749, 17.049919)"><g><path d="M 1.390625 0 L 1.390625 -8.421875 L 2.828125 -8.421875 L 2.828125 0 Z M 2.109375 -10 C 1.835938 -10 1.617188 -10.078125 1.453125 -10.234375 C 1.285156 -10.398438 1.203125 -10.601562 1.203125 -10.84375 C 1.203125 -11.082031 1.285156 -11.28125 1.453125 -11.4375 C 1.617188 -11.59375 1.835938 -11.671875 2.109375 -11.671875 C 2.378906 -11.671875 2.597656 -11.59375 2.765625 -11.4375 C 2.929688 -11.28125 3.015625 -11.082031 3.015625 -10.84375 C 3.015625 -10.601562 2.929688 -10.398438 2.765625 -10.234375 C 2.597656 -10.078125 2.378906 -10 2.109375 -10 Z M 2.109375 -10 "/></g></g><g transform="translate(41.370909, 17.049919)"><g><path d="M 3.8125 0 C 3.125 0 2.597656 -0.101562 2.234375 -0.3125 C 1.867188 -0.53125 1.617188 -0.84375 1.484375 -1.25 C 1.359375 -1.65625 1.296875 -2.144531 1.296875 -2.71875 L 1.296875 -11.640625 L 2.734375 -11.640625 L 2.734375 -2.796875 C 2.734375 -2.265625 2.800781 -1.859375 2.9375 -1.578125 C 3.070312 -1.304688 3.394531 -1.171875 3.90625 -1.171875 L 4.296875 -1.171875 L 4.296875 0 Z M 3.8125 0 "/></g></g><g transform="translate(45.979517, 17.049919)"><g><path d="M 4.203125 0 C 3.523438 0 3.003906 -0.101562 2.640625 -0.3125 C 2.273438 -0.53125 2.023438 -0.84375 1.890625 -1.25 C 1.753906 -1.65625 1.6875 -2.144531 1.6875 -2.71875 L 1.6875 -7.25 L 0.28125 -7.25 L 0.28125 -8.421875 L 1.6875 -8.421875 L 1.6875 -10.34375 L 3.125 -10.34375 L 3.125 -8.421875 L 5.1875 -8.421875 L 5.1875 -7.25 L 3.125 -7.25 L 3.125 -2.796875 C 3.125 -2.265625 3.191406 -1.859375 3.328125 -1.578125 C 3.460938 -1.304688 3.785156 -1.171875 4.296875 -1.171875 L 5.21875 -1.171875 L 5.21875 0 Z M 4.203125 0 "/></g></g><g transform="translate(51.703529, 17.049919)"><g><path d="M 4.84375 0.140625 C 4.019531 0.140625 3.3125 -0.03125 2.71875 -0.375 C 2.132812 -0.726562 1.6875 -1.226562 1.375 -1.875 C 1.070312 -2.53125 0.921875 -3.300781 0.921875 -4.1875 C 0.921875 -5.101562 1.070312 -5.890625 1.375 -6.546875 C 1.6875 -7.203125 2.132812 -7.703125 2.71875 -8.046875 C 3.3125 -8.398438 4.019531 -8.578125 4.84375 -8.578125 C 5.6875 -8.578125 6.40625 -8.398438 7 -8.046875 C 7.59375 -7.703125 8.050781 -7.203125 8.375 -6.546875 C 8.695312 -5.890625 8.859375 -5.101562 8.859375 -4.1875 C 8.859375 -3.300781 8.695312 -2.53125 8.375 -1.875 C 8.050781 -1.226562 7.59375 -0.726562 7 -0.375 C 6.40625 -0.03125 5.6875 0.140625 4.84375 0.140625 Z M 4.84375 -1.015625 C 5.46875 -1.015625 5.960938 -1.148438 6.328125 -1.421875 C 6.691406 -1.691406 6.953125 -2.066406 7.109375 -2.546875 C 7.273438 -3.035156 7.359375 -3.582031 7.359375 -4.1875 C 7.359375 -4.8125 7.273438 -5.367188 7.109375 -5.859375 C 6.953125 -6.347656 6.691406 -6.734375 6.328125 -7.015625 C 5.960938 -7.296875 5.46875 -7.4375 4.84375 -7.4375 C 4.238281 -7.4375 3.757812 -7.296875 3.40625 -7.015625 C 3.050781 -6.734375 2.796875 -6.347656 2.640625 -5.859375 C 2.484375 -5.367188 2.40625 -4.8125 2.40625 -4.1875 C 2.40625 -3.582031 2.484375 -3.035156 2.640625 -2.546875 C 2.796875 -2.066406 3.050781 -1.691406 3.40625 -1.421875 C 3.757812 -1.148438 4.238281 -1.015625 4.84375 -1.015625 Z M 4.84375 -1.015625 "/></g></g><g transform="translate(61.474123, 17.049919)"><g><path d="M 1.390625 0 L 1.390625 -8.421875 L 2.78125 -8.421875 L 2.828125 -7.125 C 3.085938 -7.457031 3.457031 -7.773438 3.9375 -8.078125 C 4.425781 -8.390625 5.046875 -8.546875 5.796875 -8.546875 C 6.722656 -8.546875 7.394531 -8.269531 7.8125 -7.71875 C 8.226562 -7.175781 8.4375 -6.410156 8.4375 -5.421875 L 8.4375 0 L 7 0 L 7 -5.21875 C 7 -5.625 6.957031 -5.984375 6.875 -6.296875 C 6.789062 -6.617188 6.632812 -6.867188 6.40625 -7.046875 C 6.1875 -7.234375 5.867188 -7.328125 5.453125 -7.328125 C 4.816406 -7.328125 4.285156 -7.179688 3.859375 -6.890625 C 3.429688 -6.609375 3.085938 -6.300781 2.828125 -5.96875 L 2.828125 0 Z M 1.390625 0 "/></g></g></g></g></g></g></svg>