<svg xmlns="http://www.w3.org/2000/svg" xmlns:xlink="http://www.w3.org/1999/xlink" width="140" zoomAndPan="magnify" viewBox="0 0 104.88 30.000001" height="40" preserveAspectRatio="xMidYMid meet" version="1.0"><defs><g/><clipPath id="2e6aa758ed"><path d="M 1.632812 1.421875 L 10.851562 1.421875 L 10.851562 11.472656 L 1.632812 11.472656 Z M 1.632812 1.421875 " clip-rule="nonzero"/></clipPath><clipPath id="4dee0c95e7"><path d="M 5.828125 1.421875 C 3.050781 1.421875 0.800781 3.671875 0.800781 6.449219 C 0.800781 9.222656 3.050781 11.472656 5.828125 11.472656 C 8.601562 11.472656 10.851562 9.222656 10.851562 6.449219 C 10.851562 3.671875 8.601562 1.421875 5.828125 1.421875 Z M 5.828125 1.421875 " clip-rule="nonzero"/></clipPath><clipPath id="2c3b63fbf4"><path d="M 0.632812 0.421875 L 9.851562 0.421875 L 9.851562 10.472656 L 0.632812 10.472656 Z M 0.632812 0.421875 " clip-rule="nonzero"/></clipPath><clipPath id="28315aca3b"><path d="M 4.828125 0.421875 C 2.050781 0.421875 -0.199219 2.671875 -0.199219 5.449219 C -0.199219 8.222656 2.050781 10.472656 4.828125 10.472656 C 7.601562 10.472656 9.851562 8.222656 9.851562 5.449219 C 9.851562 2.671875 7.601562 0.421875 4.828125 0.421875 Z M 4.828125 0.421875 " clip-rule="nonzero"/></clipPath><clipPath id="073adac6f7"><rect x="0" width="10" y="0" height="11"/></clipPath><clipPath id="00e09931f7"><path d="M 10.125 1.421875 L 20.175781 1.421875 L 20.175781 11.472656 L 10.125 11.472656 Z M 10.125 1.421875 " clip-rule="nonzero"/></clipPath><clipPath id="1987e86ee8"><path d="M 15.148438 1.421875 C 12.375 1.421875 10.125 3.671875 10.125 6.449219 C 10.125 9.222656 12.375 11.472656 15.148438 11.472656 C 17.925781 11.472656 20.175781 9.222656 20.175781 6.449219 C 20.175781 3.671875 17.925781 1.421875 15.148438 1.421875 Z M 15.148438 1.421875 " clip-rule="nonzero"/></clipPath><clipPath id="d4bd0dfc22"><path d="M 0.125 0.421875 L 10.175781 0.421875 L 10.175781 10.472656 L 0.125 10.472656 Z M 0.125 0.421875 " clip-rule="nonzero"/></clipPath><clipPath id="73ab564556"><path d="M 5.148438 0.421875 C 2.375 0.421875 0.125 2.671875 0.125 5.449219 C 0.125 8.222656 2.375 10.472656 5.148438 10.472656 C 7.925781 10.472656 10.175781 8.222656 10.175781 5.449219 C 10.175781 2.671875 7.925781 0.421875 5.148438 0.421875 Z M 5.148438 0.421875 " clip-rule="nonzero"/></clipPath><clipPath id="892b9fbfb8"><rect x="0" width="11" y="0" height="11"/></clipPath><clipPath id="3a4e9ea51e"><path d="M 10.125 10.589844 L 20.175781 10.589844 L 20.175781 20.640625 L 10.125 20.640625 Z M 10.125 10.589844 " clip-rule="nonzero"/></clipPath><clipPath id="571d84eaaa"><path d="M 15.148438 10.589844 C 12.375 10.589844 10.125 12.839844 10.125 15.617188 C 10.125 18.390625 12.375 20.640625 15.148438 20.640625 C 17.925781 20.640625 20.175781 18.390625 20.175781 15.617188 C 20.175781 12.839844 17.925781 10.589844 15.148438 10.589844 Z M 15.148438 10.589844 " clip-rule="nonzero"/></clipPath><clipPath id="71f46e5b27"><path d="M 0.125 0.589844 L 10.175781 0.589844 L 10.175781 10.640625 L 0.125 10.640625 Z M 0.125 0.589844 " clip-rule="nonzero"/></clipPath><clipPath id="1969ed5a8a"><path d="M 5.148438 0.589844 C 2.375 0.589844 0.125 2.839844 0.125 5.617188 C 0.125 8.390625 2.375 10.640625 5.148438 10.640625 C 7.925781 10.640625 10.175781 8.390625 10.175781 5.617188 C 10.175781 2.839844 7.925781 0.589844 5.148438 0.589844 Z M 5.148438 0.589844 " clip-rule="nonzero"/></clipPath><clipPath id="059a0b2061"><rect x="0" width="11" y="0" height="11"/></clipPath><clipPath id="dc461e7794"><path d="M 1.632812 12.222656 L 9.761719 12.222656 L 9.761719 27.609375 L 1.632812 27.609375 Z M 1.632812 12.222656 " clip-rule="nonzero"/></clipPath><clipPath id="9168c08358"><path d="M 2.070312 12.222656 C -2.179688 12.222656 -5.625 15.664062 -5.625 19.914062 C -5.625 24.164062 -2.179688 27.609375 2.070312 27.609375 C 6.316406 27.609375 9.761719 24.164062 9.761719 19.914062 C 9.761719 15.664062 6.316406 12.222656 2.070312 12.222656 Z M 2.070312 12.222656 " clip-rule="nonzero"/></clipPath><clipPath id="cfb23230ff"><path d="M 0.632812 0.222656 L 8.761719 0.222656 L 8.761719 15.609375 L 0.632812 15.609375 Z M 0.632812 0.222656 " clip-rule="nonzero"/></clipPath><clipPath id="b0c60b4c07"><path d="M 1.070312 0.222656 C -3.179688 0.222656 -6.625 3.664062 -6.625 7.914062 C -6.625 12.164062 -3.179688 15.609375 1.070312 15.609375 C 5.316406 15.609375 8.761719 12.164062 8.761719 7.914062 C 8.761719 3.664062 5.316406 0.222656 1.070312 0.222656 Z M 1.070312 0.222656 " clip-rule="nonzero"/></clipPath><clipPath id="a4075787bc"><rect x="0" width="9" y="0" height="16"/></clipPath><clipPath id="7cf65a4bda"><path d="M 21 6 L 103.128906 6 L 103.128906 23 L 21 23 Z M 21 6 " clip-rule="nonzero"/></clipPath><clipPath id="c7a846f059"><rect x="0" width="83" y="0" height="17"/></clipPath></defs><g clip-path="url(#2e6aa758ed)"><g clip-path="url(#4dee0c95e7)"><g transform="matrix(1, 0, 0, 1, 1, 1)"><g clip-path="url(#073adac6f7)"><g clip-path="url(#2c3b63fbf4)"><g clip-path="url(#28315aca3b)"><path fill="#ffffff" d="M -0.199219 0.421875 L 9.851562 0.421875 L 9.851562 10.472656 L -0.199219 10.472656 Z M -0.199219 0.421875 " fill-opacity="1" fill-rule="nonzero"/></g></g></g></g></g></g><g clip-path="url(#00e09931f7)"><g clip-path="url(#1987e86ee8)"><g transform="matrix(1, 0, 0, 1, 10, 1)"><g clip-path="url(#892b9fbfb8)"><g clip-path="url(#d4bd0dfc22)"><g clip-path="url(#73ab564556)"><path fill="#ffffff" d="M 0.125 0.421875 L 10.175781 0.421875 L 10.175781 10.472656 L 0.125 10.472656 Z M 0.125 0.421875 " fill-opacity="1" fill-rule="nonzero"/></g></g></g></g></g></g><g clip-path="url(#3a4e9ea51e)"><g clip-path="url(#571d84eaaa)"><g transform="matrix(1, 0, 0, 1, 10, 10)"><g clip-path="url(#059a0b2061)"><g clip-path="url(#71f46e5b27)"><g clip-path="url(#1969ed5a8a)"><path fill="#ffffff" d="M 0.125 0.589844 L 10.175781 0.589844 L 10.175781 10.640625 L 0.125 10.640625 Z M 0.125 0.589844 " fill-opacity="1" fill-rule="nonzero"/></g></g></g></g></g></g><g clip-path="url(#dc461e7794)"><g clip-path="url(#9168c08358)"><g transform="matrix(1, 0, 0, 1, 1, 12)"><g clip-path="url(#a4075787bc)"><g clip-path="url(#cfb23230ff)"><g clip-path="url(#b0c60b4c07)"><path fill="#ffffff" d="M -6.625 0.222656 L 8.761719 0.222656 L 8.761719 15.609375 L -6.625 15.609375 Z M -6.625 0.222656 " fill-opacity="1" fill-rule="nonzero"/></g></g></g></g></g></g><g clip-path="url(#7cf65a4bda)"><g transform="matrix(1, 0, 0, 1, 21, 6)"><g clip-path="url(#c7a846f059)"><g fill="#ffffff" fill-opacity="1"><g transform="translate(0.911269, 11.806139)"><g><path d="M 1.03125 -1.828125 C 1.34375 -1.566406 1.695312 -1.351562 2.09375 -1.1875 C 2.488281 -1.019531 2.945312 -0.9375 3.46875 -0.9375 C 4.101562 -0.9375 4.601562 -1.066406 4.96875 -1.328125 C 5.34375 -1.585938 5.53125 -1.941406 5.53125 -2.390625 C 5.53125 -2.578125 5.503906 -2.75 5.453125 -2.90625 C 5.398438 -3.0625 5.296875 -3.210938 5.140625 -3.359375 C 4.984375 -3.503906 4.765625 -3.648438 4.484375 -3.796875 C 4.210938 -3.941406 3.859375 -4.097656 3.421875 -4.265625 C 2.941406 -4.441406 2.535156 -4.617188 2.203125 -4.796875 C 1.878906 -4.984375 1.617188 -5.179688 1.421875 -5.390625 C 1.222656 -5.609375 1.078125 -5.847656 0.984375 -6.109375 C 0.898438 -6.367188 0.859375 -6.664062 0.859375 -7 C 0.859375 -7.320312 0.925781 -7.628906 1.0625 -7.921875 C 1.195312 -8.210938 1.394531 -8.460938 1.65625 -8.671875 C 1.925781 -8.890625 2.253906 -9.0625 2.640625 -9.1875 C 3.035156 -9.3125 3.484375 -9.375 3.984375 -9.375 C 4.523438 -9.375 5.007812 -9.316406 5.4375 -9.203125 C 5.875 -9.085938 6.300781 -8.929688 6.71875 -8.734375 L 6.265625 -7.671875 C 5.960938 -7.847656 5.613281 -7.992188 5.21875 -8.109375 C 4.820312 -8.222656 4.398438 -8.28125 3.953125 -8.28125 C 3.378906 -8.28125 2.925781 -8.171875 2.59375 -7.953125 C 2.257812 -7.734375 2.09375 -7.4375 2.09375 -7.0625 C 2.09375 -6.882812 2.113281 -6.726562 2.15625 -6.59375 C 2.207031 -6.457031 2.304688 -6.328125 2.453125 -6.203125 C 2.597656 -6.078125 2.800781 -5.945312 3.0625 -5.8125 C 3.320312 -5.6875 3.664062 -5.539062 4.09375 -5.375 C 4.601562 -5.1875 5.03125 -4.988281 5.375 -4.78125 C 5.726562 -4.582031 6.007812 -4.367188 6.21875 -4.140625 C 6.425781 -3.910156 6.578125 -3.664062 6.671875 -3.40625 C 6.765625 -3.144531 6.8125 -2.859375 6.8125 -2.546875 C 6.8125 -2.109375 6.726562 -1.722656 6.5625 -1.390625 C 6.394531 -1.054688 6.164062 -0.773438 5.875 -0.546875 C 5.582031 -0.316406 5.226562 -0.140625 4.8125 -0.015625 C 4.40625 0.0976562 3.957031 0.15625 3.46875 0.15625 C 2.832031 0.15625 2.25 0.0703125 1.71875 -0.09375 C 1.195312 -0.269531 0.753906 -0.5 0.390625 -0.78125 Z M 1.03125 -1.828125 "/></g></g></g><g fill="#ffffff" fill-opacity="1"><g transform="translate(8.386179, 11.806139)"><g><path d="M 0.59375 -3.375 C 0.59375 -3.882812 0.671875 -4.359375 0.828125 -4.796875 C 0.984375 -5.242188 1.203125 -5.628906 1.484375 -5.953125 C 1.773438 -6.285156 2.117188 -6.539062 2.515625 -6.71875 C 2.921875 -6.90625 3.359375 -7 3.828125 -7 C 4.222656 -7 4.578125 -6.929688 4.890625 -6.796875 C 5.210938 -6.660156 5.492188 -6.488281 5.734375 -6.28125 L 5.734375 -6.84375 L 6.8125 -6.84375 L 6.8125 -1.65625 C 6.8125 -1.320312 6.890625 -1.101562 7.046875 -1 C 7.210938 -0.90625 7.394531 -0.859375 7.59375 -0.859375 L 7.34375 0.0625 C 6.5 0.0625 5.988281 -0.273438 5.8125 -0.953125 C 5.707031 -0.816406 5.585938 -0.679688 5.453125 -0.546875 C 5.316406 -0.410156 5.160156 -0.289062 4.984375 -0.1875 C 4.804688 -0.0820312 4.609375 0 4.390625 0.0625 C 4.171875 0.125 3.929688 0.15625 3.671875 0.15625 C 3.242188 0.15625 2.84375 0.0703125 2.46875 -0.09375 C 2.09375 -0.257812 1.765625 -0.492188 1.484375 -0.796875 C 1.210938 -1.109375 0.992188 -1.476562 0.828125 -1.90625 C 0.671875 -2.34375 0.59375 -2.832031 0.59375 -3.375 Z M 3.9375 -0.890625 C 4.269531 -0.890625 4.582031 -0.96875 4.875 -1.125 C 5.175781 -1.289062 5.425781 -1.5 5.625 -1.75 L 5.625 -5.421875 C 5.394531 -5.585938 5.132812 -5.71875 4.84375 -5.8125 C 4.5625 -5.914062 4.265625 -5.96875 3.953125 -5.96875 C 3.628906 -5.96875 3.335938 -5.90625 3.078125 -5.78125 C 2.816406 -5.664062 2.59375 -5.492188 2.40625 -5.265625 C 2.21875 -5.046875 2.066406 -4.773438 1.953125 -4.453125 C 1.847656 -4.140625 1.796875 -3.796875 1.796875 -3.421875 C 1.796875 -3.054688 1.847656 -2.71875 1.953125 -2.40625 C 2.066406 -2.09375 2.21875 -1.820312 2.40625 -1.59375 C 2.601562 -1.375 2.828125 -1.203125 3.078125 -1.078125 C 3.335938 -0.953125 3.625 -0.890625 3.9375 -0.890625 Z M 3.9375 -0.890625 "/></g></g></g><g fill="#ffffff" fill-opacity="1"><g transform="translate(16.505939, 11.806139)"><g><path d="M 2.203125 -5.703125 C 2.441406 -6.066406 2.75 -6.375 3.125 -6.625 C 3.507812 -6.875 3.96875 -7 4.5 -7 C 5.269531 -7 5.84375 -6.765625 6.21875 -6.296875 C 6.601562 -5.835938 6.796875 -5.222656 6.796875 -4.453125 L 6.796875 0 L 5.625 0 L 5.625 -4.328125 C 5.625 -4.828125 5.507812 -5.222656 5.28125 -5.515625 C 5.050781 -5.804688 4.722656 -5.953125 4.296875 -5.953125 C 4.097656 -5.953125 3.898438 -5.914062 3.703125 -5.84375 C 3.515625 -5.769531 3.328125 -5.664062 3.140625 -5.53125 C 2.960938 -5.40625 2.796875 -5.253906 2.640625 -5.078125 C 2.492188 -4.898438 2.359375 -4.71875 2.234375 -4.53125 L 2.234375 0 L 1.046875 0 L 1.046875 -6.84375 L 2.203125 -6.84375 Z M 2.203125 -5.703125 "/></g></g></g><g fill="#ffffff" fill-opacity="1"><g transform="translate(24.296691, 11.806139)"><g><path d="M 1.1875 -9.203125 L 6.640625 -9.203125 L 6.640625 -8.125 L 2.4375 -8.125 L 2.4375 -5.3125 L 5.953125 -5.3125 L 5.953125 -4.28125 L 2.4375 -4.28125 L 2.4375 0 L 1.1875 0 Z M 1.1875 -9.203125 "/></g></g></g><g fill="#ffffff" fill-opacity="1"><g transform="translate(31.33732, 11.806139)"><g><path d="M 4.765625 -5.703125 C 4.597656 -5.765625 4.398438 -5.796875 4.171875 -5.796875 C 3.921875 -5.796875 3.679688 -5.742188 3.453125 -5.640625 C 3.222656 -5.535156 3.015625 -5.378906 2.828125 -5.171875 C 2.648438 -4.960938 2.503906 -4.691406 2.390625 -4.359375 C 2.285156 -4.035156 2.234375 -3.648438 2.234375 -3.203125 L 2.234375 0 L 1.046875 0 L 1.046875 -6.84375 L 2.203125 -6.84375 L 2.203125 -5.359375 C 2.273438 -5.566406 2.375 -5.769531 2.5 -5.96875 C 2.632812 -6.175781 2.789062 -6.351562 2.96875 -6.5 C 3.15625 -6.644531 3.363281 -6.765625 3.59375 -6.859375 C 3.832031 -6.953125 4.097656 -7 4.390625 -7 C 4.523438 -7 4.65625 -6.988281 4.78125 -6.96875 C 4.90625 -6.957031 5.019531 -6.941406 5.125 -6.921875 Z M 4.765625 -5.703125 "/></g></g></g><g fill="#ffffff" fill-opacity="1"><g transform="translate(36.588188, 11.806139)"><g><path d="M 0.59375 -3.375 C 0.59375 -3.882812 0.671875 -4.359375 0.828125 -4.796875 C 0.984375 -5.242188 1.203125 -5.628906 1.484375 -5.953125 C 1.773438 -6.285156 2.117188 -6.539062 2.515625 -6.71875 C 2.921875 -6.90625 3.359375 -7 3.828125 -7 C 4.222656 -7 4.578125 -6.929688 4.890625 -6.796875 C 5.210938 -6.660156 5.492188 -6.488281 5.734375 -6.28125 L 5.734375 -6.84375 L 6.8125 -6.84375 L 6.8125 -1.65625 C 6.8125 -1.320312 6.890625 -1.101562 7.046875 -1 C 7.210938 -0.90625 7.394531 -0.859375 7.59375 -0.859375 L 7.34375 0.0625 C 6.5 0.0625 5.988281 -0.273438 5.8125 -0.953125 C 5.707031 -0.816406 5.585938 -0.679688 5.453125 -0.546875 C 5.316406 -0.410156 5.160156 -0.289062 4.984375 -0.1875 C 4.804688 -0.0820312 4.609375 0 4.390625 0.0625 C 4.171875 0.125 3.929688 0.15625 3.671875 0.15625 C 3.242188 0.15625 2.84375 0.0703125 2.46875 -0.09375 C 2.09375 -0.257812 1.765625 -0.492188 1.484375 -0.796875 C 1.210938 -1.109375 0.992188 -1.476562 0.828125 -1.90625 C 0.671875 -2.34375 0.59375 -2.832031 0.59375 -3.375 Z M 3.9375 -0.890625 C 4.269531 -0.890625 4.582031 -0.96875 4.875 -1.125 C 5.175781 -1.289062 5.425781 -1.5 5.625 -1.75 L 5.625 -5.421875 C 5.394531 -5.585938 5.132812 -5.71875 4.84375 -5.8125 C 4.5625 -5.914062 4.265625 -5.96875 3.953125 -5.96875 C 3.628906 -5.96875 3.335938 -5.90625 3.078125 -5.78125 C 2.816406 -5.664062 2.59375 -5.492188 2.40625 -5.265625 C 2.21875 -5.046875 2.066406 -4.773438 1.953125 -4.453125 C 1.847656 -4.140625 1.796875 -3.796875 1.796875 -3.421875 C 1.796875 -3.054688 1.847656 -2.71875 1.953125 -2.40625 C 2.066406 -2.09375 2.21875 -1.820312 2.40625 -1.59375 C 2.601562 -1.375 2.828125 -1.203125 3.078125 -1.078125 C 3.335938 -0.953125 3.625 -0.890625 3.9375 -0.890625 Z M 3.9375 -0.890625 "/></g></g></g><g fill="#ffffff" fill-opacity="1"><g transform="translate(44.707948, 11.806139)"><g><path d="M 2.203125 -5.703125 C 2.441406 -6.066406 2.75 -6.375 3.125 -6.625 C 3.507812 -6.875 3.96875 -7 4.5 -7 C 5.269531 -7 5.84375 -6.765625 6.21875 -6.296875 C 6.601562 -5.835938 6.796875 -5.222656 6.796875 -4.453125 L 6.796875 0 L 5.625 0 L 5.625 -4.328125 C 5.625 -4.828125 5.507812 -5.222656 5.28125 -5.515625 C 5.050781 -5.804688 4.722656 -5.953125 4.296875 -5.953125 C 4.097656 -5.953125 3.898438 -5.914062 3.703125 -5.84375 C 3.515625 -5.769531 3.328125 -5.664062 3.140625 -5.53125 C 2.960938 -5.40625 2.796875 -5.253906 2.640625 -5.078125 C 2.492188 -4.898438 2.359375 -4.71875 2.234375 -4.53125 L 2.234375 0 L 1.046875 0 L 1.046875 -6.84375 L 2.203125 -6.84375 Z M 2.203125 -5.703125 "/></g></g></g><g fill="#ffffff" fill-opacity="1"><g transform="translate(52.498701, 11.806139)"><g><path d="M 5.421875 -5.59375 C 5.160156 -5.71875 4.921875 -5.804688 4.703125 -5.859375 C 4.484375 -5.921875 4.238281 -5.953125 3.96875 -5.953125 C 3.664062 -5.953125 3.378906 -5.894531 3.109375 -5.78125 C 2.835938 -5.664062 2.601562 -5.5 2.40625 -5.28125 C 2.21875 -5.0625 2.066406 -4.796875 1.953125 -4.484375 C 1.847656 -4.179688 1.796875 -3.835938 1.796875 -3.453125 C 1.796875 -3.085938 1.847656 -2.75 1.953125 -2.4375 C 2.054688 -2.132812 2.195312 -1.867188 2.375 -1.640625 C 2.5625 -1.410156 2.78125 -1.226562 3.03125 -1.09375 C 3.289062 -0.957031 3.578125 -0.890625 3.890625 -0.890625 C 4.222656 -0.890625 4.507812 -0.925781 4.75 -1 C 4.988281 -1.070312 5.242188 -1.179688 5.515625 -1.328125 L 5.875 -0.328125 C 5.59375 -0.179688 5.285156 -0.0664062 4.953125 0.015625 C 4.617188 0.109375 4.238281 0.15625 3.8125 0.15625 C 3.320312 0.15625 2.878906 0.0664062 2.484375 -0.109375 C 2.085938 -0.285156 1.75 -0.53125 1.46875 -0.84375 C 1.1875 -1.15625 0.96875 -1.53125 0.8125 -1.96875 C 0.664062 -2.40625 0.59375 -2.890625 0.59375 -3.421875 C 0.59375 -3.910156 0.664062 -4.367188 0.8125 -4.796875 C 0.96875 -5.234375 1.191406 -5.613281 1.484375 -5.9375 C 1.773438 -6.269531 2.125 -6.53125 2.53125 -6.71875 C 2.9375 -6.90625 3.394531 -7 3.90625 -7 C 4.300781 -7 4.644531 -6.960938 4.9375 -6.890625 C 5.226562 -6.816406 5.507812 -6.71875 5.78125 -6.59375 Z M 5.421875 -5.59375 "/></g></g></g><g fill="#ffffff" fill-opacity="1"><g transform="translate(58.71025, 11.806139)"><g><path d="M 2.234375 0 L 1.046875 0 L 1.046875 -6.84375 L 2.234375 -6.84375 Z M 1.640625 -8.015625 C 1.410156 -8.015625 1.210938 -8.09375 1.046875 -8.25 C 0.890625 -8.414062 0.8125 -8.613281 0.8125 -8.84375 C 0.8125 -9.09375 0.882812 -9.289062 1.03125 -9.4375 C 1.1875 -9.59375 1.390625 -9.671875 1.640625 -9.671875 C 1.867188 -9.671875 2.0625 -9.585938 2.21875 -9.421875 C 2.382812 -9.265625 2.46875 -9.070312 2.46875 -8.84375 C 2.46875 -8.582031 2.394531 -8.378906 2.25 -8.234375 C 2.101562 -8.085938 1.898438 -8.015625 1.640625 -8.015625 Z M 1.640625 -8.015625 "/></g></g></g><g fill="#ffffff" fill-opacity="1"><g transform="translate(62.000271, 11.806139)"><g><path d="M 0.953125 -1.546875 C 1.179688 -1.335938 1.46875 -1.171875 1.8125 -1.046875 C 2.164062 -0.929688 2.539062 -0.875 2.9375 -0.875 C 3.425781 -0.875 3.796875 -0.953125 4.046875 -1.109375 C 4.296875 -1.273438 4.421875 -1.484375 4.421875 -1.734375 C 4.421875 -1.867188 4.394531 -1.992188 4.34375 -2.109375 C 4.300781 -2.222656 4.210938 -2.332031 4.078125 -2.4375 C 3.953125 -2.539062 3.78125 -2.640625 3.5625 -2.734375 C 3.34375 -2.835938 3.054688 -2.953125 2.703125 -3.078125 C 2.054688 -3.296875 1.578125 -3.554688 1.265625 -3.859375 C 0.953125 -4.160156 0.796875 -4.582031 0.796875 -5.125 C 0.796875 -5.382812 0.851562 -5.628906 0.96875 -5.859375 C 1.082031 -6.085938 1.25 -6.285156 1.46875 -6.453125 C 1.695312 -6.617188 1.972656 -6.75 2.296875 -6.84375 C 2.617188 -6.945312 2.984375 -7 3.390625 -7 C 3.835938 -7 4.226562 -6.953125 4.5625 -6.859375 C 4.90625 -6.765625 5.210938 -6.648438 5.484375 -6.515625 L 5.15625 -5.53125 C 4.914062 -5.675781 4.644531 -5.789062 4.34375 -5.875 C 4.039062 -5.96875 3.707031 -6.015625 3.34375 -6.015625 C 2.882812 -6.015625 2.535156 -5.921875 2.296875 -5.734375 C 2.066406 -5.546875 1.953125 -5.34375 1.953125 -5.125 C 1.953125 -5.019531 1.96875 -4.921875 2 -4.828125 C 2.039062 -4.742188 2.113281 -4.660156 2.21875 -4.578125 C 2.320312 -4.503906 2.460938 -4.425781 2.640625 -4.34375 C 2.816406 -4.269531 3.035156 -4.191406 3.296875 -4.109375 C 3.734375 -3.953125 4.097656 -3.796875 4.390625 -3.640625 C 4.691406 -3.492188 4.929688 -3.328125 5.109375 -3.140625 C 5.296875 -2.960938 5.425781 -2.765625 5.5 -2.546875 C 5.582031 -2.328125 5.625 -2.085938 5.625 -1.828125 C 5.625 -1.523438 5.554688 -1.25 5.421875 -1 C 5.296875 -0.75 5.113281 -0.539062 4.875 -0.375 C 4.644531 -0.207031 4.359375 -0.078125 4.015625 0.015625 C 3.679688 0.109375 3.304688 0.15625 2.890625 0.15625 C 2.367188 0.15625 1.898438 0.09375 1.484375 -0.03125 C 1.078125 -0.164062 0.734375 -0.335938 0.453125 -0.546875 Z M 0.953125 -1.546875 "/></g></g></g><g fill="#ffffff" fill-opacity="1"><g transform="translate(68.159185, 11.806139)"><g><path d="M 5.421875 -5.59375 C 5.160156 -5.71875 4.921875 -5.804688 4.703125 -5.859375 C 4.484375 -5.921875 4.238281 -5.953125 3.96875 -5.953125 C 3.664062 -5.953125 3.378906 -5.894531 3.109375 -5.78125 C 2.835938 -5.664062 2.601562 -5.5 2.40625 -5.28125 C 2.21875 -5.0625 2.066406 -4.796875 1.953125 -4.484375 C 1.847656 -4.179688 1.796875 -3.835938 1.796875 -3.453125 C 1.796875 -3.085938 1.847656 -2.75 1.953125 -2.4375 C 2.054688 -2.132812 2.195312 -1.867188 2.375 -1.640625 C 2.5625 -1.410156 2.78125 -1.226562 3.03125 -1.09375 C 3.289062 -0.957031 3.578125 -0.890625 3.890625 -0.890625 C 4.222656 -0.890625 4.507812 -0.925781 4.75 -1 C 4.988281 -1.070312 5.242188 -1.179688 5.515625 -1.328125 L 5.875 -0.328125 C 5.59375 -0.179688 5.285156 -0.0664062 4.953125 0.015625 C 4.617188 0.109375 4.238281 0.15625 3.8125 0.15625 C 3.320312 0.15625 2.878906 0.0664062 2.484375 -0.109375 C 2.085938 -0.285156 1.75 -0.53125 1.46875 -0.84375 C 1.1875 -1.15625 0.96875 -1.53125 0.8125 -1.96875 C 0.664062 -2.40625 0.59375 -2.890625 0.59375 -3.421875 C 0.59375 -3.910156 0.664062 -4.367188 0.8125 -4.796875 C 0.96875 -5.234375 1.191406 -5.613281 1.484375 -5.9375 C 1.773438 -6.269531 2.125 -6.53125 2.53125 -6.71875 C 2.9375 -6.90625 3.394531 -7 3.90625 -7 C 4.300781 -7 4.644531 -6.960938 4.9375 -6.890625 C 5.226562 -6.816406 5.507812 -6.71875 5.78125 -6.59375 Z M 5.421875 -5.59375 "/></g></g></g><g fill="#ffffff" fill-opacity="1"><g transform="translate(74.370735, 11.806139)"><g><path d="M 6.125 -3.421875 C 6.125 -3.765625 6.066406 -4.085938 5.953125 -4.390625 C 5.847656 -4.703125 5.695312 -4.96875 5.5 -5.1875 C 5.300781 -5.414062 5.066406 -5.597656 4.796875 -5.734375 C 4.535156 -5.878906 4.25 -5.953125 3.9375 -5.953125 C 3.238281 -5.953125 2.695312 -5.722656 2.3125 -5.265625 C 1.925781 -4.804688 1.734375 -4.203125 1.734375 -3.453125 C 1.734375 -3.109375 1.785156 -2.78125 1.890625 -2.46875 C 2.003906 -2.15625 2.160156 -1.878906 2.359375 -1.640625 C 2.554688 -1.410156 2.785156 -1.226562 3.046875 -1.09375 C 3.316406 -0.957031 3.613281 -0.890625 3.9375 -0.890625 C 4.28125 -0.890625 4.585938 -0.953125 4.859375 -1.078125 C 5.128906 -1.203125 5.359375 -1.375 5.546875 -1.59375 C 5.734375 -1.820312 5.875 -2.085938 5.96875 -2.390625 C 6.070312 -2.703125 6.125 -3.046875 6.125 -3.421875 Z M 0.53125 -3.421875 C 0.53125 -3.972656 0.613281 -4.46875 0.78125 -4.90625 C 0.957031 -5.351562 1.195312 -5.726562 1.5 -6.03125 C 1.800781 -6.34375 2.160156 -6.582031 2.578125 -6.75 C 2.992188 -6.914062 3.445312 -7 3.9375 -7 C 4.40625 -7 4.847656 -6.914062 5.265625 -6.75 C 5.679688 -6.582031 6.039062 -6.34375 6.34375 -6.03125 C 6.65625 -5.726562 6.898438 -5.359375 7.078125 -4.921875 C 7.253906 -4.484375 7.34375 -3.992188 7.34375 -3.453125 C 7.34375 -2.898438 7.253906 -2.398438 7.078125 -1.953125 C 6.910156 -1.515625 6.671875 -1.140625 6.359375 -0.828125 C 6.054688 -0.515625 5.695312 -0.269531 5.28125 -0.09375 C 4.863281 0.0703125 4.414062 0.15625 3.9375 0.15625 C 3.445312 0.15625 2.992188 0.0664062 2.578125 -0.109375 C 2.160156 -0.285156 1.800781 -0.53125 1.5 -0.84375 C 1.195312 -1.15625 0.957031 -1.53125 0.78125 -1.96875 C 0.613281 -2.40625 0.53125 -2.890625 0.53125 -3.421875 Z M 0.53125 -3.421875 "/></g></g></g></g></g></g></svg>