<svg xmlns="http://www.w3.org/2000/svg" xmlns:xlink="http://www.w3.org/1999/xlink" width="140" zoomAndPan="magnify" viewBox="0 0 104.88 30.000001" height="40" preserveAspectRatio="xMidYMid meet" version="1.0"><defs><g/><clipPath id="30ef458898"><path d="M 2 0 L 37 0 L 37 29.03125 L 2 29.03125 Z M 2 0 " clip-rule="nonzero"/></clipPath><clipPath id="235a891b40"><path d="M 12.957031 1.015625 L 33.964844 1.015625 L 33.964844 22.027344 L 12.957031 22.027344 Z M 12.957031 1.015625 " clip-rule="nonzero"/></clipPath><clipPath id="b335bd8525"><path d="M 23.460938 1.015625 C 17.660156 1.015625 12.957031 5.71875 12.957031 11.519531 C 12.957031 17.324219 17.660156 22.027344 23.460938 22.027344 C 29.261719 22.027344 33.964844 17.324219 33.964844 11.519531 C 33.964844 5.71875 29.261719 1.015625 23.460938 1.015625 Z M 23.460938 1.015625 " clip-rule="nonzero"/></clipPath><clipPath id="4592922794"><path d="M 0.957031 0.015625 L 21.964844 0.015625 L 21.964844 21.027344 L 0.957031 21.027344 Z M 0.957031 0.015625 " clip-rule="nonzero"/></clipPath><clipPath id="eef829894d"><path d="M 11.460938 0.015625 C 5.660156 0.015625 0.957031 4.71875 0.957031 10.519531 C 0.957031 16.324219 5.660156 21.027344 11.460938 21.027344 C 17.261719 21.027344 21.964844 16.324219 21.964844 10.519531 C 21.964844 4.71875 17.261719 0.015625 11.460938 0.015625 Z M 11.460938 0.015625 " clip-rule="nonzero"/></clipPath><clipPath id="2ba4111877"><rect x="0" width="22" y="0" height="22"/></clipPath><clipPath id="c4ca552742"><path d="M 6.277344 20.871094 L 14.441406 20.871094 L 14.441406 29.03125 L 6.277344 29.03125 Z M 6.277344 20.871094 " clip-rule="nonzero"/></clipPath><clipPath id="8ea427fb3e"><path d="M 10.359375 20.871094 C 8.105469 20.871094 6.277344 22.695312 6.277344 24.949219 C 6.277344 27.203125 8.105469 29.03125 10.359375 29.03125 C 12.613281 29.03125 14.441406 27.203125 14.441406 24.949219 C 14.441406 22.695312 12.613281 20.871094 10.359375 20.871094 Z M 10.359375 20.871094 " clip-rule="nonzero"/></clipPath><clipPath id="6183b7e0f4"><path d="M 0.277344 0.871094 L 8.441406 0.871094 L 8.441406 9.03125 L 0.277344 9.03125 Z M 0.277344 0.871094 " clip-rule="nonzero"/></clipPath><clipPath id="d812e6529b"><path d="M 4.359375 0.871094 C 2.105469 0.871094 0.277344 2.695312 0.277344 4.949219 C 0.277344 7.203125 2.105469 9.03125 4.359375 9.03125 C 6.613281 9.03125 8.441406 7.203125 8.441406 4.949219 C 8.441406 2.695312 6.613281 0.871094 4.359375 0.871094 Z M 4.359375 0.871094 " clip-rule="nonzero"/></clipPath><clipPath id="07f10f7cdb"><rect x="0" width="9" y="0" height="10"/></clipPath><clipPath id="7765ca0af6"><path d="M 39 0 L 103.128906 0 L 103.128906 29 L 39 29 Z M 39 0 " clip-rule="nonzero"/></clipPath><clipPath id="317e88b257"><rect x="0" width="65" y="0" height="29"/></clipPath></defs><g clip-path="url(#30ef458898)"><path fill="#ffffff" d="M 19.359375 32.371094 C 18.515625 32.371094 17.683594 32.308594 16.851562 32.183594 C 16.019531 32.0625 15.203125 31.878906 14.398438 31.632812 C 13.59375 31.390625 12.8125 31.089844 12.054688 30.730469 C 11.292969 30.371094 10.566406 29.957031 9.867188 29.488281 C 9.167969 29.023438 8.507812 28.507812 7.882812 27.941406 C 7.261719 27.378906 6.683594 26.773438 6.152344 26.121094 C 5.617188 25.472656 5.136719 24.789062 4.703125 24.066406 C 4.273438 23.347656 3.894531 22.597656 3.574219 21.824219 C 3.253906 21.046875 2.988281 20.25 2.785156 19.4375 C 2.582031 18.621094 2.4375 17.796875 2.355469 16.960938 C 2.273438 16.125 2.253906 15.285156 2.292969 14.445312 C 2.335938 13.605469 2.4375 12.777344 2.601562 11.953125 C 2.765625 11.128906 2.988281 10.320312 3.269531 9.527344 C 3.554688 8.738281 3.894531 7.972656 4.289062 7.230469 C 4.683594 6.488281 5.132812 5.78125 5.632812 5.105469 C 6.132812 4.433594 6.679688 3.796875 7.273438 3.203125 C 7.671875 2.8125 8.085938 2.445312 8.519531 2.097656 C 8.953125 1.746094 9.402344 1.421875 9.867188 1.117188 C 10.332031 0.8125 10.8125 0.53125 11.304688 0.273438 C 11.796875 0.015625 12.300781 -0.21875 12.816406 -0.429688 C 13.328125 -0.636719 13.855469 -0.820312 14.386719 -0.976562 C 14.921875 -1.136719 15.460938 -1.265625 16.003906 -1.371094 C 16.550781 -1.476562 17.101562 -1.554688 17.65625 -1.605469 C 18.207031 -1.660156 18.761719 -1.683594 19.320312 -1.679688 C 19.875 -1.675781 20.429688 -1.648438 20.984375 -1.589844 C 21.535156 -1.535156 22.085938 -1.449219 22.628906 -1.339844 C 23.175781 -1.230469 23.714844 -1.09375 24.246094 -0.929688 C 24.777344 -0.765625 25.296875 -0.578125 25.8125 -0.363281 C 26.324219 -0.148438 26.824219 0.0898438 27.316406 0.351562 C 27.804688 0.613281 28.28125 0.902344 28.742188 1.210938 C 29.207031 1.519531 29.652344 1.851562 30.082031 2.203125 C 30.511719 2.554688 30.921875 2.929688 31.316406 3.320312 C 31.707031 3.714844 32.082031 4.125 32.433594 4.554688 C 32.789062 4.984375 33.117188 5.429688 33.429688 5.894531 C 33.738281 6.355469 34.023438 6.832031 34.289062 7.320312 C 34.550781 7.808594 34.789062 8.3125 35.003906 8.824219 C 35.21875 9.335938 35.40625 9.859375 35.570312 10.390625 C 35.734375 10.921875 35.871094 11.460938 35.980469 12.003906 C 36.089844 12.550781 36.175781 13.097656 36.230469 13.652344 C 36.289062 14.207031 36.320312 14.761719 36.320312 15.316406 C 36.324219 15.871094 36.300781 16.425781 36.25 16.980469 C 36.199219 17.535156 36.121094 18.082031 36.015625 18.628906 C 35.910156 19.175781 35.78125 19.714844 35.621094 20.25 C 35.464844 20.78125 35.28125 21.304688 35.074219 21.820312 C 34.863281 22.335938 34.628906 22.839844 34.371094 23.332031 C 34.113281 23.824219 33.832031 24.304688 33.527344 24.769531 C 33.222656 25.234375 32.898438 25.683594 32.550781 26.117188 C 32.199219 26.550781 31.832031 26.964844 31.445312 27.363281 C 29.84375 28.972656 27.996094 30.210938 25.902344 31.078125 C 23.808594 31.945312 21.625 32.375 19.359375 32.371094 Z M 19.359375 1.558594 C 11.789062 1.558594 5.632812 7.714844 5.632812 15.28125 C 5.632812 22.851562 11.789062 29.007812 19.359375 29.007812 C 26.925781 29.007812 33.082031 22.851562 33.082031 15.28125 C 33.082031 7.714844 26.925781 1.558594 19.359375 1.558594 Z M 19.359375 1.558594 " fill-opacity="1" fill-rule="nonzero"/></g><g clip-path="url(#235a891b40)"><g clip-path="url(#b335bd8525)"><g transform="matrix(1, 0, 0, 1, 12, 1)"><g clip-path="url(#2ba4111877)"><g clip-path="url(#4592922794)"><g clip-path="url(#eef829894d)"><path fill="#ffffff" d="M 0.957031 0.015625 L 21.964844 0.015625 L 21.964844 21.027344 L 0.957031 21.027344 Z M 0.957031 0.015625 " fill-opacity="1" fill-rule="nonzero"/></g></g></g></g></g></g><g clip-path="url(#c4ca552742)"><g clip-path="url(#8ea427fb3e)"><g transform="matrix(1, 0, 0, 1, 6, 20)"><g clip-path="url(#07f10f7cdb)"><g clip-path="url(#6183b7e0f4)"><g clip-path="url(#d812e6529b)"><path fill="#ffffff" d="M 0.277344 0.871094 L 8.441406 0.871094 L 8.441406 9.03125 L 0.277344 9.03125 Z M 0.277344 0.871094 " fill-opacity="1" fill-rule="nonzero"/></g></g></g></g></g></g><g clip-path="url(#7765ca0af6)"><g transform="matrix(1, 0, 0, 1, 39, 0.000000000000005692)"><g clip-path="url(#317e88b257)"><g fill="#ffffff" fill-opacity="1"><g transform="translate(0.697558, 21.436782)"><g><path d="M 2.40625 -11.828125 L 6.46875 -1.90625 L 10.578125 -11.828125 L 12.421875 -11.828125 L 7.375 0 L 5.53125 0 L 0.515625 -11.828125 Z M 2.40625 -11.828125 "/></g></g></g><g fill="#ffffff" fill-opacity="1"><g transform="translate(13.630907, 21.436782)"><g><path d="M 1.53125 -16.046875 C 1.53125 -16.421875 1.65625 -16.734375 1.90625 -16.984375 C 2.15625 -17.234375 2.457031 -17.359375 2.8125 -17.359375 C 3.175781 -17.359375 3.484375 -17.234375 3.734375 -16.984375 C 3.992188 -16.734375 4.125 -16.421875 4.125 -16.046875 C 4.125 -15.691406 3.992188 -15.390625 3.734375 -15.140625 C 3.484375 -14.890625 3.175781 -14.765625 2.8125 -14.765625 C 2.457031 -14.765625 2.15625 -14.890625 1.90625 -15.140625 C 1.65625 -15.390625 1.53125 -15.691406 1.53125 -16.046875 Z M 3.703125 0 L 1.953125 0 L 1.953125 -11.828125 L 3.703125 -11.828125 Z M 3.703125 0 "/></g></g></g><g fill="#ffffff" fill-opacity="1"><g transform="translate(19.278161, 21.436782)"><g><path d="M 9.78125 -3.359375 C 9.78125 -2.679688 9.59375 -2.070312 9.21875 -1.53125 C 8.851562 -1 8.347656 -0.578125 7.703125 -0.265625 C 7.066406 0.046875 6.34375 0.203125 5.53125 0.203125 C 4.332031 0.203125 3.363281 -0.078125 2.625 -0.640625 C 1.894531 -1.203125 1.320312 -1.941406 0.90625 -2.859375 L 2.328125 -3.625 C 2.515625 -3.25 2.738281 -2.882812 3 -2.53125 C 3.269531 -2.175781 3.609375 -1.882812 4.015625 -1.65625 C 4.421875 -1.4375 4.921875 -1.328125 5.515625 -1.328125 C 5.941406 -1.328125 6.347656 -1.398438 6.734375 -1.546875 C 7.117188 -1.691406 7.429688 -1.910156 7.671875 -2.203125 C 7.910156 -2.492188 8.03125 -2.84375 8.03125 -3.25 C 8.03125 -3.769531 7.796875 -4.175781 7.328125 -4.46875 C 6.867188 -4.769531 6.113281 -5.035156 5.0625 -5.265625 C 4.28125 -5.441406 3.65625 -5.632812 3.1875 -5.84375 C 2.726562 -6.0625 2.332031 -6.359375 2 -6.734375 C 1.5625 -7.234375 1.34375 -7.820312 1.34375 -8.5 C 1.34375 -9.226562 1.550781 -9.851562 1.96875 -10.375 C 2.382812 -10.894531 2.90625 -11.296875 3.53125 -11.578125 C 4.15625 -11.867188 4.800781 -12.015625 5.46875 -12.015625 C 6.25 -12.015625 6.910156 -11.890625 7.453125 -11.640625 C 8.003906 -11.390625 8.457031 -11.050781 8.8125 -10.625 C 9.164062 -10.207031 9.445312 -9.757812 9.65625 -9.28125 L 8.234375 -8.5 C 7.972656 -9.0625 7.628906 -9.535156 7.203125 -9.921875 C 6.785156 -10.304688 6.207031 -10.5 5.46875 -10.5 C 4.832031 -10.5 4.273438 -10.316406 3.796875 -9.953125 C 3.316406 -9.585938 3.078125 -9.148438 3.078125 -8.640625 C 3.078125 -8.304688 3.15625 -8.03125 3.3125 -7.8125 C 3.46875 -7.59375 3.75 -7.40625 4.15625 -7.25 C 4.5625 -7.09375 5.125 -6.9375 5.84375 -6.78125 C 6.570312 -6.625 7.179688 -6.429688 7.671875 -6.203125 C 8.160156 -5.984375 8.582031 -5.6875 8.9375 -5.3125 C 9.195312 -5.0625 9.398438 -4.769531 9.546875 -4.4375 C 9.703125 -4.101562 9.78125 -3.742188 9.78125 -3.359375 Z M 9.78125 -3.359375 "/></g></g></g><g fill="#ffffff" fill-opacity="1"><g transform="translate(30.196203, 21.436782)"><g><path d="M 1.53125 -16.046875 C 1.53125 -16.421875 1.65625 -16.734375 1.90625 -16.984375 C 2.15625 -17.234375 2.457031 -17.359375 2.8125 -17.359375 C 3.175781 -17.359375 3.484375 -17.234375 3.734375 -16.984375 C 3.992188 -16.734375 4.125 -16.421875 4.125 -16.046875 C 4.125 -15.691406 3.992188 -15.390625 3.734375 -15.140625 C 3.484375 -14.890625 3.175781 -14.765625 2.8125 -14.765625 C 2.457031 -14.765625 2.15625 -14.890625 1.90625 -15.140625 C 1.65625 -15.390625 1.53125 -15.691406 1.53125 -16.046875 Z M 3.703125 0 L 1.953125 0 L 1.953125 -11.828125 L 3.703125 -11.828125 Z M 3.703125 0 "/></g></g></g><g fill="#ffffff" fill-opacity="1"><g transform="translate(35.843457, 21.436782)"><g><path d="M 7.171875 0.203125 C 6.023438 0.203125 4.992188 -0.0664062 4.078125 -0.609375 C 3.160156 -1.160156 2.429688 -1.894531 1.890625 -2.8125 C 1.347656 -3.726562 1.078125 -4.75 1.078125 -5.875 C 1.078125 -7.03125 1.347656 -8.070312 1.890625 -9 C 2.429688 -9.9375 3.160156 -10.671875 4.078125 -11.203125 C 5.003906 -11.742188 6.050781 -12.015625 7.21875 -12.015625 C 8.351562 -12.015625 9.378906 -11.742188 10.296875 -11.203125 C 11.222656 -10.671875 11.957031 -9.945312 12.5 -9.03125 C 13.039062 -8.113281 13.3125 -7.085938 13.3125 -5.953125 C 13.3125 -4.785156 13.039062 -3.738281 12.5 -2.8125 C 11.957031 -1.882812 11.222656 -1.148438 10.296875 -0.609375 C 9.367188 -0.0664062 8.328125 0.203125 7.171875 0.203125 Z M 7.21875 -1.328125 C 8.0625 -1.328125 8.804688 -1.53125 9.453125 -1.9375 C 10.097656 -2.351562 10.601562 -2.910156 10.96875 -3.609375 C 11.34375 -4.304688 11.53125 -5.0625 11.53125 -5.875 C 11.53125 -6.695312 11.34375 -7.460938 10.96875 -8.171875 C 10.601562 -8.878906 10.09375 -9.445312 9.4375 -9.875 C 8.78125 -10.300781 8.023438 -10.515625 7.171875 -10.515625 C 6.316406 -10.515625 5.5625 -10.304688 4.90625 -9.890625 C 4.257812 -9.484375 3.753906 -8.929688 3.390625 -8.234375 C 3.035156 -7.546875 2.859375 -6.785156 2.859375 -5.953125 C 2.859375 -5.128906 3.039062 -4.363281 3.40625 -3.65625 C 3.78125 -2.957031 4.296875 -2.394531 4.953125 -1.96875 C 5.609375 -1.539062 6.363281 -1.328125 7.21875 -1.328125 Z M 7.21875 -1.328125 "/></g></g></g><g fill="#ffffff" fill-opacity="1"><g transform="translate(50.238447, 21.436782)"><g><path d="M 10.46875 0 L 10.46875 -6.890625 C 10.46875 -7.929688 10.191406 -8.785156 9.640625 -9.453125 C 9.097656 -10.128906 8.285156 -10.46875 7.203125 -10.46875 C 6.515625 -10.46875 5.90625 -10.300781 5.375 -9.96875 C 4.84375 -9.632812 4.425781 -9.1875 4.125 -8.625 C 3.820312 -8.070312 3.671875 -7.441406 3.671875 -6.734375 L 3.671875 0 L 1.953125 0 L 1.953125 -11.828125 L 3.65625 -11.828125 L 3.65625 -9.65625 C 4.582031 -11.25 5.941406 -12.046875 7.734375 -12.046875 C 8.703125 -12.046875 9.519531 -11.84375 10.1875 -11.4375 C 10.851562 -11.03125 11.351562 -10.472656 11.6875 -9.765625 C 12.03125 -9.054688 12.203125 -8.238281 12.203125 -7.3125 L 12.203125 0 Z M 10.46875 0 "/></g></g></g></g></g></g></svg>